<?xml version="1.0" encoding="utf-8"?>
<!-- Generator: Adobe Illustrator 21.1.0, SVG Export Plug-In . SVG Version: 6.00 Build 0)  -->
<svg version="1.1" id="レイヤー_1" xmlns="http://www.w3.org/2000/svg" xmlns:xlink="http://www.w3.org/1999/xlink" x="0px"
	 y="0px" width="300px" height="36px" viewBox="0 0 300 36" style="enable-background:new 0 0 300 36;" xml:space="preserve">
<style type="text/css">
	.st0{fill:#FFB90C;}
	.st1{fill:#17CBC1;}
	.st2{fill:#FFFFFF;}
	.st3{display:none;}
	.st4{display:inline;}
	.st5{fill:#FFBBD5;}
	.st6{fill:#FFB7CF;}
	.st7{fill:#CD7DD0;}
	.st8{fill:#807667;}
	.st9{fill:#F8AF19;}
	.st10{fill:#F8D300;}
	.st11{fill:#818181;}
	.st12{fill:#FF7FA5;}
	.st13{fill:#00BED5;}
	.st14{clip-path:url(#SVGID_2_);}
	.st15{clip-path:url(#SVGID_3_);}
	.st16{fill:none;stroke:#FFFFFF;stroke-width:2.0282;stroke-linecap:round;stroke-linejoin:round;}
	.st17{clip-path:url(#SVGID_4_);}
	.st18{fill:none;stroke:#FFFFFF;stroke-width:1.8386;stroke-linecap:round;stroke-linejoin:round;}
	.st19{clip-path:url(#SVGID_5_);}
	.st20{fill:none;stroke:#FFFFFF;stroke-width:2.021;stroke-linecap:round;stroke-linejoin:round;}
	.st21{clip-path:url(#SVGID_6_);}
	.st22{fill:none;stroke:#FFFFFF;stroke-width:2.0108;stroke-linecap:round;stroke-linejoin:round;}
</style>
<symbol  id="パーくん" viewBox="-34.1 -53.2 68.2 106.5">
	<g>
		<g>
			<g>
				<path class="st0" d="M-10.8-40.1c1.6-0.4,3.6-1.1,2.4-3.8c-1.2-2.7-1.8-3-3.7-2.4c-2,0.5-6.3,2.6-7.9-0.5
					c-1.6-3.1,2.6-5.8,6.1-6.3c3.6-0.4,7.9,0.7,9.4,2c1.5,1.3,1.2,3.3,0.9,6.8c-0.2,3.5-0.7,5,2.7,6.3"/>
			</g>
		</g>
		<g>
			<g>
				<path class="st0" d="M11.5-40.1c-1.6-0.4-3.6-1.1-2.4-3.8c1.2-2.7,1.8-3,3.7-2.4c2,0.5,6.3,2.6,7.9-0.5c1.6-3.1-2.6-5.8-6.1-6.3
					c-3.6-0.4-7.9,0.7-9.4,2c-1.5,1.3-1.2,3.3-0.9,6.8c0.2,3.5,0.7,5-2.7,6.3"/>
			</g>
		</g>
		<g>
			<g>
				<path class="st0" d="M-12.9-29.6C-16.7-27-35.5-11.4-34-7.1s5.9,2.4,6,1.1c0,0,5.1-5.4,10.4-7.1L-12.9-29.6z"/>
			</g>
		</g>
		<g>
			<g>
				<path class="st0" d="M10.4-6.4C14.5-8.6,35-21.7,34.1-26.2c-1-4.5-5.6-3.1-5.8-1.8c0,0-5.7,4.8-11.1,5.8L10.4-6.4z"/>
			</g>
		</g>
	</g>
	<g>
		<g>
			<path class="st1" d="M0.4-5.5h16.3c0,0,11.7-38.4,8.6-39.7c-3.1-1.3-11.8-2.3-25-2.3c-13.2,0-21.8,1-25,2.3
				C-27.7-43.8-16-5.5-16-5.5H0.4z"/>
		</g>
	</g>
	<g>
		<g>
			<g>
				<rect x="-2.5" y="34.9" class="st0" width="6.1" height="18.3"/>
			</g>
		</g>
		<g>
			<g>
				
					<rect x="5.2" y="37.2" transform="matrix(3.291773e-11 -1 1 3.291773e-11 -39.7541 58.413)" class="st0" width="8.3" height="23.8"/>
			</g>
		</g>
		<g>
			<g>
				<path class="st0" d="M-32.1,10.8c0-14.7,8.2-26.6,32.6-26.6S33.1-3.9,33.1,10.8S24.8,37.4,0.5,37.4S-32.1,25.5-32.1,10.8z"/>
			</g>
		</g>
	</g>
	<g>
		<g>
			<path class="st2" d="M-25.1,10.8C-25.1-0.7-18.6-10,0.5-10S26-0.7,26,10.8S19.6,31.7,0.5,31.7S-25.1,22.3-25.1,10.8z"/>
		</g>
	</g>
	<g>
		<g>
			<g>
				<path class="st2" d="M-1.2-25.5c0,0,1.1,8.4,1.7,8.4s1.7-8.4,1.7-8.4H-1.2z"/>
			</g>
		</g>
		<g>
			<g>
				<path class="st2" d="M0.5-27.2c0,0-19.1,1-19.1,1.7c0,0.8,19.1,1.7,19.1,1.7V-27.2z"/>
			</g>
		</g>
		<g>
			<g>
				<path class="st2" d="M0.5-27.2c0,0,19.1,1,19.1,1.7c0,0.8-19.1,1.7-19.1,1.7V-27.2z"/>
			</g>
		</g>
		<g>
			<g>
				<path class="st2" d="M-1.2-25.5c0,0,0.8-19.6,1.7-19.6s1.7,19.6,1.7,19.6H-1.2z"/>
			</g>
		</g>
	</g>
	<g class="st3">
		<g class="st4">
			<g>
				<g>
					<circle class="st5" cx="-17.7" cy="3.6" r="4.5"/>
				</g>
			</g>
			<g>
				<g>
					<circle class="st5" cx="18.7" cy="3.6" r="4.5"/>
				</g>
			</g>
		</g>
		<g class="st4">
			<g>
				<g>
					<circle class="st6" cx="-17.7" cy="3.6" r="4.5"/>
				</g>
			</g>
			<g>
				<g>
					<circle class="st6" cx="18.7" cy="3.6" r="4.5"/>
				</g>
			</g>
		</g>
	</g>
	<g>
		<g>
			<g>
				<path class="st1" d="M-9.4,12.8c0-1.8-0.6-3.3-3.4-3.3s-3.4,1.5-3.4,3.3s0.6,3.3,3.4,3.3S-9.4,14.6-9.4,12.8z"/>
			</g>
		</g>
		<g>
			<g>
				<path class="st1" d="M17.3,12.8c0-1.8-0.6-3.3-3.4-3.3s-3.4,1.5-3.4,3.3s0.6,3.3,3.4,3.3S17.3,14.6,17.3,12.8z"/>
			</g>
		</g>
	</g>
	<path class="st1" d="M9.2,3.8C8.7,3,7.7,2,6.8,1.8C5,1.4,4,3.7,3.4,5c-0.2,0.5-1,0.8-1.8,0.9C0,6.2-2,6.1-2.4,5.2
		c-0.7-1.5-1.7-3.5-3.7-3.5c-0.5,0-0.6,0.2-1.3,0.7C-7.6,2.8-8,3.1-8.2,3.5c-1.1,1.4-6.7,0.8-5.8-0.4c2-2.7,5.3-3.8,8.6-3.8
		C-3.1-0.6-1-0.2,0.6,1c1.7-1.1,3.7-1.5,6-1.6C9.9-0.7,13,0.2,15,2.8C15.9,4.1,10.3,5.2,9.2,3.8z"/>
</symbol>
<symbol  id="パーにゃん" viewBox="-46.5 -49.9 93.1 99.8">
	<path class="st7" d="M2.5,1.4c3.7-2.7,21.8-17.3,20.8-22.8c-0.9-4.5-5.3-3.2-6.5-2.2c-1.3,1-0.2,2.5-0.9,3.5c-1.7,2.1-5.4,4.7-9,6
		L2.5,1.4z"/>
	<g>
		<path class="st7" d="M-16.9-49.7L-16.9-49.7c-2.1,0-3.8,1.7-3.8,3.8v11.3c0,2.1,1.7,3.8,3.8,3.8h0c2.1,0,3.8-1.7,3.8-3.8v-11.3
			C-13.1-48-14.8-49.7-16.9-49.7z"/>
		<path class="st7" d="M-14.1-49.9h-5.5c-1.8,0-3.3,1.5-3.3,3.3v0c0,1.8,1.5,3.3,3.3,3.3h5.5c1.8,0,3.3-1.5,3.3-3.3v0
			C-10.8-48.4-12.3-49.9-14.1-49.9z"/>
	</g>
	<g>
		<path class="st7" d="M-1.3-49.7L-1.3-49.7c2.1,0,3.8,1.7,3.8,3.8v11.3c0,2.1-1.7,3.8-3.8,3.8h0c-2.1,0-3.8-1.7-3.8-3.8v-11.3
			C-5.1-48-3.4-49.7-1.3-49.7z"/>
		<path class="st7" d="M-4.1-49.9h5.5c1.8,0,3.3,1.5,3.3,3.3v0c0,1.8-1.5,3.3-3.3,3.3h-5.5c-1.8,0-3.3-1.5-3.3-3.3v0
			C-7.4-48.4-5.9-49.9-4.1-49.9z"/>
	</g>
	<g>
		<g>
			<path class="st7" d="M-20.6-17.9c-4.3,1.7-25.5,11.3-25.9,16.8c-0.3,4.6,4.3,4.4,5.8,3.8s0.8-2.4,1.8-3.1c2.2-1.6,9.2-4.2,13-4.5
				L-20.6-17.9z"/>
		</g>
	</g>
	<path class="st7" d="M45.3-3.8C42.8,0.4,37.4,0.6,34-1.5c-1.2,2.7-3,5.4-6.4,5.6C21.5,4.5,17.4-1,18.3-6.7
		c0.6-4.2,5.6-7.1,7.7-10.7c1.3-2.1,0.7-4.8-1.6-6.7c-3.2-2.5-9.8-3.2-13.6-2.8c-4.4,0.5-4.4-4.9,0-5.4C17.4-33,26-33,29.8-26.2
		c2.1,3.7,1.5,7.1-0.3,10.7c-1.3,2.5-6.1,8.1-5.3,11.3c0.9,3.8,5.8,3,6.3-0.3c0.4-2.6,0.9-4.9,3.1-2.9c7.2,6.6,12.1-6.8,2.2-5.5
		c-4.4,0.6-3.3-6.6,1-5.6C43.4-16.9,49.1-10.3,45.3-3.8z"/>
	<g>
		<g>
			<path class="st8" d="M-9.3-34.6c-13.2,0-26-3.8-25.9,0.4c0.2,5.1,12.5,38.6,12.5,38.6h13.3H4.1c0,0,12.3-33.4,12.5-38.6
				C16.8-38.5,3.9-34.6-9.3-34.6z"/>
		</g>
		<g>
			<circle class="st8" cx="-28.9" cy="-34.5" r="4.7"/>
			<circle class="st8" cx="-21" cy="-35.5" r="4.7"/>
			<circle class="st8" cx="-13.1" cy="-36.5" r="4.7"/>
			<circle class="st8" cx="-5.2" cy="-36.5" r="4.7"/>
			<circle class="st8" cx="2.8" cy="-35.5" r="4.7"/>
			<circle class="st8" cx="10.7" cy="-34.5" r="4.7"/>
		</g>
	</g>
	<g>
		<g>
			<path class="st7" d="M0.7,42c1.6,1.3,8.7,6.1,12.7,7.3c4,1.2,4.9,0.5,5.5-3.7c0.6-4.2,1.7-9.1,0-14.3L0.7,42z"/>
			<path class="st7" d="M-19.2,42c-1.6,1.3-8.7,6.1-12.7,7.3c-4,1.2-4.9,0.5-5.5-3.7c-0.6-4.2-1.7-9.1,0-14.3L-19.2,42z"/>
		</g>
		<g>
			<g>
				<g>
					<path class="st7" d="M-41.7,17.2c0-14.7,8.2-26.6,32.6-26.6S23.4,2.5,23.4,17.2S15.2,43.7-9.1,43.7S-41.7,31.8-41.7,17.2z"/>
				</g>
			</g>
		</g>
	</g>
	<g>
		<g>
			<path class="st2" d="M-34.7,17.2c0-11.5,6.5-20.8,25.5-20.8s25.5,9.3,25.5,20.8S10,38-9.1,38S-34.7,28.7-34.7,17.2z"/>
		</g>
	</g>
	<g>
		<g>
			<g>
				<path class="st2" d="M-10.8-19.1c0,0,1.1,8.4,1.7,8.4s1.7-8.4,1.7-8.4H-10.8z"/>
			</g>
		</g>
		<g>
			<g>
				<path class="st2" d="M-9.1-20.9c0,0-19.1,1-19.1,1.7c0,0.8,19.1,1.7,19.1,1.7V-20.9z"/>
			</g>
		</g>
		<g>
			<g>
				<path class="st2" d="M-9.1-20.9c0,0,19.1,1,19.1,1.7c0,0.8-19.1,1.7-19.1,1.7V-20.9z"/>
			</g>
		</g>
		<g>
			<g>
				<path class="st2" d="M-10.8-19.1c0,0,0.8-17.7,1.7-17.7s1.7,17.7,1.7,17.7H-10.8z"/>
			</g>
		</g>
	</g>
	<g>
		<g>
			<path class="st8" d="M7.4,19.1c0-1.8-1.1-3.3-3.4-3.3s-3.4,1.5-3.4,3.3s1.1,3.3,3.4,3.3S7.4,21,7.4,19.1z"/>
		</g>
		<g>
			<path class="st8" d="M0.7,20.4c-1.3,0.4-2,2.1-2,2.7c0,0.7,0.5,1.1,1.1,1.2c0.7,0.1,1.6-0.3,1.4-0.9C1,23,1,22.5,1.3,22.3
				c0.4-0.3,1-0.2,2,0.1c0.7,0.2,1.7-0.2,1.9-0.9c0.1-0.6-0.3-0.8-0.8-1C3.8,20.2,2,20.1,0.7,20.4z"/>
		</g>
	</g>
	<g>
		<g>
			<g>
				<g>
					<path class="st8" d="M8.7,37c3.3,4.1,9.7,5,14.7,1c0.9-1.2-1.9-5.1-2.6-6.5c-1.2-2.2-1-3.7-1.9-5.4c-0.9-1.8-8.8,0.8-10.6,9.2
						C8.3,36,8.7,37,8.7,37z"/>
				</g>
			</g>
			<g>
				<g>
					<path class="st8" d="M9.4,36.7C9.8,42,5.7,46.9-0.7,47.3c-1.5-0.3-2-5-2.4-6.5c-0.6-2.4-1.7-3.4-2.3-5.3c-0.5-1.9,7-5.3,14-0.3
						C9.1,35.7,9.4,36.7,9.4,36.7z"/>
				</g>
			</g>
		</g>
		<ellipse transform="matrix(0.3608 -0.9326 0.9326 0.3608 -28.2571 31.5886)" class="st8" cx="8.9" cy="36.4" rx="2.7" ry="2.7"/>
	</g>
	<g>
		<g>
			<path class="st8" d="M-19.1,19.1c0-1.8-1.1-3.3-3.4-3.3s-3.4,1.5-3.4,3.3s1.1,3.3,3.4,3.3S-19.1,21-19.1,19.1z"/>
		</g>
		<g>
			<path class="st8" d="M-25.8,20.4c-1.3,0.4-2,2.1-2,2.7c0,0.7,0.5,1.1,1.1,1.2c0.7,0.1,1.6-0.3,1.4-0.9c-0.1-0.5-0.1-1,0.2-1.2
				c0.4-0.3,1-0.2,2,0.1c0.7,0.2,1.7-0.2,1.9-0.9c0.1-0.6-0.3-0.8-0.8-1C-22.7,20.2-24.4,20.1-25.8,20.4z"/>
		</g>
	</g>
	<g>
		<g>
			<g>
				<circle class="st5" cx="-25.3" cy="9" r="4.5"/>
			</g>
		</g>
		<g>
			<g>
				<circle class="st5" cx="7.1" cy="9" r="4.5"/>
			</g>
		</g>
	</g>
	<path class="st8" d="M-9.1,7.2c1.5,0,3.5-1.1,4.2-1.5C-2.1,4,0.7,5.2,2.1,7.1c1.5,2.1-0.3,5.2-2.1,4.4c-2.1-1-0.7-2.3-1.4-3
		c-0.6-0.7-2.3,0-3.6,0.8c-1.3,0.9-2.6,1.2-4.2,1.2v0v0c-1.6,0-2.9-0.3-4.2-1.2c-1.3-0.9-3-1.6-3.6-0.8c-0.6,0.8,0.8,2.1-1.4,3
		c-1.8,0.8-3.6-2.2-2.1-4.4c1.4-1.9,4.2-3,7.1-1.4C-12.6,6.1-10.6,7.2-9.1,7.2z"/>
</symbol>
<symbol  id="パーマン" viewBox="-38.8 -60 77.7 120">
	<g>
		<g>
			<g>
				<path class="st0" d="M-11.1-44.8c1.9-0.5,4.2-1.2,2.8-4.4c-1.3-3.2-2-3.4-4.3-2.8s-7.3,3-9.2-0.6c-1.8-3.6,3-6.8,7.1-7.3
					s9.1,0.8,10.9,2.3s1.4,3.8,1.1,7.9s-0.9,5.8,3.1,7.3"/>
			</g>
		</g>
		<g>
			<g>
				<path class="st0" d="M14.8-44.8c-1.9-0.5-4.2-1.2-2.8-4.4c1.3-3.2,2-3.4,4.3-2.8s7.3,3,9.2-0.6c1.8-3.6-3-6.8-7.1-7.3
					s-9.1,0.8-10.9,2.3s-1.4,3.8-1.1,7.9s0.9,5.8-3.1,7.3"/>
			</g>
		</g>
		<g>
			<g>
				<path class="st0" d="M-15.1-20.6c-3.2,0.9-9.6,1.8-11.1,5c0,0,1.5,2.4-0.4,4.4c-1.9,2.1-4.6,2.1-6.2-1.3c-1.7-3.4,0.2-6.8,1.8-8
					c1.6-1.2,8.3-4.2,8.3-4.2"/>
			</g>
		</g>
		<g>
			<g>
				<path class="st0" d="M20.8-17.1c2.7-2,7.4-6.3,10.9-5.6c0,0,0.9,2.6,3.7,2.5c2.8-0.2,4.5-2.2,2.9-5.6c-1.6-3.4-5.4-4.1-7.3-3.6
					c-1.9,0.5-8.5,3.9-8.5,3.9"/>
			</g>
		</g>
	</g>
	<g>
		<g>
			<path class="st8" d="M2-11.9c13.4,0,16.4,0.5,16.4,0.5c0.9-2.8,3.8-6.6,8.4-6.4c4.6,0.2,4.7-0.4,3.3-2.6s-0.3-16.6-7-23.1
				c-5.1-4.9-10.2-7-15.6-8.3c-1.7-0.4-3.8-1.1-5.5-2.4c-1.7,1.2-3.8,2-5.5,2.4c-5.4,1.2-10.5,3.3-15.6,8.3
				c-6.7,6.5-5.6,20.9-7,23.1c-1.4,2.2-1.4,2.8,3.3,2.6c4.6-0.2,7.5,3.6,8.4,6.4C-14.5-11.3-11.4-11.9,2-11.9z"/>
		</g>
	</g>
	<g>
		<g>
			<g>
				<g>
					<rect x="-1" y="34.5" class="st0" width="6.1" height="25.5"/>
				</g>
			</g>
			<g>
				<g>
					
						<rect x="5.8" y="36.3" transform="matrix(3.742346e-11 -1 1 3.742346e-11 -37.3291 54.9977)" class="st0" width="6.1" height="19.7"/>
				</g>
			</g>
			<g>
				<g>
					
						<rect x="6.8" y="43.8" transform="matrix(2.996898e-11 -1 1 2.996898e-11 -44.851 66.7729)" class="st0" width="8.4" height="24"/>
				</g>
			</g>
		</g>
		<g>
			<g>
				<path class="st0" d="M34.9,10.4c0,14.8-4.3,26.7-32.8,26.7s-32.8-12-32.8-26.7s4.3-26.7,32.8-26.7S34.9-4.4,34.9,10.4z"/>
			</g>
		</g>
	</g>
	<g>
		<g>
			<path class="st2" d="M27.5,10.4c0,11.4-3.4,20.7-25.4,20.7s-25.4-9.3-25.4-20.7S-20-10.4,2.1-10.4S27.5-1.1,27.5,10.4z"/>
		</g>
	</g>
	<g>
		<g>
			<g>
				<path class="st8" d="M-7.9,12.2c0-2.3-0.7-4.1-3.5-4.1s-3.5,1.8-3.5,4.1s0.7,4.1,3.5,4.1S-7.9,14.4-7.9,12.2z"/>
			</g>
		</g>
		<g>
			<g>
				<path class="st8" d="M19,12.2c0-2.3-0.7-4.1-3.5-4.1s-3.5,1.8-3.5,4.1s0.7,4.1,3.5,4.1S19,14.4,19,12.2z"/>
			</g>
		</g>
		<g>
			<g>
				<path class="st8" d="M17,1.5c0.1-2.1-1.7-4.7-4.1-5.6C9.4-5.5,5.3-5.6,2-1.3C-1-5.3-4.9-5.8-9.2-4c-2.3,1-3.5,2.9-3.9,5.5
					c0.6-0.3,1.1-0.6,1.7-0.8c1.1-0.5,2.1-0.4,3,0.4c0.8,0.8,1.7,1.5,2.6,2.2c0.5,0.4,1,0.7,1.5,1c2,1,3.7,0.7,5.2-1
					C1.3,3,1.6,2.5,2,2c0.3,0.4,0.6,0.8,0.9,1.1c1.8,2,3.6,2.4,5.9,0.9c1-0.6,1.9-1.4,2.8-2.2c2.1-1.8,2.5-1.9,5-0.6
					C16.7,1.3,16.9,1.4,17,1.5z"/>
			</g>
		</g>
	</g>
	<g>
		<g>
			<g>
				<path class="st2" d="M0.2-27.5c0,0,1.2,9,1.8,9s1.8-9,1.8-9H0.2z"/>
			</g>
		</g>
		<g>
			<g>
				<path class="st2" d="M2.1-29.4c0,0-20.4,1-20.4,1.8s20.4,1.8,20.4,1.8V-29.4z"/>
			</g>
		</g>
		<g>
			<g>
				<path class="st2" d="M2.1-29.4c0,0,20.4,1,20.4,1.8S2.1-25.7,2.1-25.7V-29.4z"/>
			</g>
		</g>
		<g>
			<g>
				<path class="st2" d="M0.2-27.5c0,0,0.9-21.1,1.8-21.1s1.8,21.1,1.8,21.1H0.2z"/>
			</g>
		</g>
	</g>
	<g>
		<g>
			<g>
				<path class="st8" d="M-29.8-7.5c0,0-7,39-8.8,38.6c-1.7-0.3,6.1-39.1,6.1-39.1L-29.8-7.5z"/>
			</g>
		</g>
		<g>
			<g>
				<path class="st8" d="M-30.1-13.1L-30.1-13.1c-1.6-0.3-3.1,0.7-3.4,2.3v0c-0.3,1.6,0.7,3.1,2.3,3.4l0.1,0
					c1.6,0.3,3.1-0.7,3.4-2.3v0C-27.5-11.3-28.6-12.8-30.1-13.1z"/>
			</g>
		</g>
	</g>
	<g>
		<g>
			<path class="st9" d="M-29-13.2c0,0-2.5,1.2-1.6,2.8c1,1.6,3.2-0.1,3.2-0.1"/>
		</g>
	</g>
</symbol>
<symbol  id="新規シンボル" viewBox="-66.7 -64.4 133.5 128.8">
	<g class="st3">
		<g class="st4">
			<g>
				<g>
					<path class="st8" d="M-58.6,42.7c-0.2,0-0.4,0-0.5,0.1c-0.1,0-0.2,0.1-0.3,0.2c-0.1,0.2-0.1,0.4-0.1,0.6c0,0.1,0.1,0.3,0.4,0.5
						l0.5,0.2c0.5,0.2,1,0.3,1.5,0.4c0.5,0.1,0.9,0.2,1.4,0.3c0.3,0,0.5,0.1,0.7,0.1c0.2,0.1,0.5,0.1,0.7,0.2
						c0.5,0.1,1.1,0.2,1.6,0.3c1,0.2,2,0.4,3,0.6c0.2,0,0.5,0.1,0.7,0.1c0.2,0,0.4,0.1,0.7,0c0.1,0,0.1,0,0.2-0.1
						c0.4-0.2,0.5-0.5,0.4-0.9c0-0.1,0-0.1-0.1-0.2c-0.2-0.3-0.5-0.4-0.9-0.4c-0.5,0-0.9-0.1-1.3-0.2c-0.5-0.1-1-0.2-1.5-0.2
						c-0.9-0.2-1.9-0.4-2.9-0.7c-1-0.1-2-0.4-2.9-0.7c0,0-0.1-0.1-0.2-0.1c-0.1,0-0.1,0-0.2,0c-0.1,0-0.2,0-0.2,0c0,0-0.2,0-0.3-0.1
						C-58.4,42.7-58.5,42.7-58.6,42.7z M-58.8,49.3c-0.1,0-0.3,0-0.4,0c-0.1,0-0.1,0-0.2,0c-0.3,0.1-0.4,0.4-0.4,0.5
						c0,0.1,0,0.4,0.2,0.6c0.3,0.2,0.5,0.3,0.8,0.4L-58,51c1,0.3,2,0.5,3,0.7c1,0.2,2,0.3,3,0.5c0.3,0.1,0.5,0.1,0.8,0.1
						c0,0,0.1,0,0.2,0c0.2,0,0.3,0,0.5-0.1c0,0,0.1,0,0.1-0.1c0.3-0.2,0.4-0.6,0.3-1c0,0-0.1-0.1-0.1-0.1c-0.2-0.2-0.4-0.3-0.7-0.3
						c-0.2,0-0.5-0.1-0.8-0.1c-0.3,0-0.6-0.1-0.9-0.1c-0.3-0.1-0.6-0.1-1-0.2c-0.3,0-0.6-0.1-1-0.2c-0.3-0.1-0.6-0.1-0.9-0.2
						c-0.3-0.1-0.6-0.2-0.9-0.3l-2-0.5C-58.5,49.3-58.6,49.3-58.8,49.3z"/>
				</g>
				<g>
					<path class="st8" d="M-41.5,44.3C-41.5,44.3-41.5,44.3-41.5,44.3c-0.5,0-0.9,0.4-1,0.9l-0.3,1.2c-0.3,1-0.5,2-0.8,3
						c-0.1,0.5-0.2,1-0.4,1.5c-0.1,0.2-0.1,0.4-0.2,0.7c0,0,0,0,0,0.1c0,0,0,0-0.1,0c-0.2-0.1-0.5-0.2-0.7-0.3
						c-0.3-0.1-0.6-0.2-0.8-0.2c0,0-0.2,0-0.3,0c-0.2,0-0.4,0.1-0.6,0.2c-0.1,0.1-0.2,0.2-0.2,0.4c-0.1,0.5,0.3,0.9,0.8,1.1
						c0.2,0.1,0.4,0.1,0.6,0.2c0.2,0.1,0.4,0.1,0.7,0.2c0,0,0.1,0,0.1,0c0,0,0,0,0.1,0c-0.2,0.5-0.3,1-0.3,1.5
						c-0.1,0.4-0.2,0.8-0.3,1.2c-0.2,0.3-0.1,0.7,0.2,0.9c0,0,0.1,0.1,0.1,0.1c0.2,0.1,0.5,0.2,0.7,0.3c0.3,0.1,0.5,0.2,0.8,0.1
						c0.1,0,0.2-0.1,0.3-0.2c0.2-0.2,0.3-0.4,0.3-0.7l0.5-2.1c0-0.2,0-0.3,0.1-0.5c0.1,0.1,0.3,0.1,0.4,0.2l1.5,0.5
						c0.5,0.2,1,0.3,1.5,0.5c0.5,0.1,0.9,0.3,1.4,0.5c0.4,0.2,0.9,0.4,1.4,0.6c0.4,0.2,0.9,0.2,1.3-0.1c0.1-0.1,0.2-0.1,0.2-0.2
						c0.1-0.3,0.1-0.7-0.1-1c-0.1-0.2-0.1-0.4-0.2-0.5c-0.2-1-0.5-2-0.8-2.9c-0.1-0.4-0.3-0.9-0.4-1.3c-0.1-0.5-0.3-0.9-0.8-1.2
						c-0.1-0.1-0.3-0.1-0.4-0.1c-0.1,0-0.3-0.1-0.4-0.1c-0.1,0-0.4,0-0.6,0c-0.1,0-0.1,0-0.2,0.1c-0.3,0.2-0.4,0.6-0.1,1
						c0.1,0.1,0.1,0.3,0.2,0.5c0.3,0.9,0.5,1.8,0.8,2.8c0.1,0.3,0.2,0.7,0.3,1c-0.2-0.1-0.4-0.1-0.6-0.2c-0.5-0.2-1-0.3-1.5-0.5
						c-0.5-0.2-1-0.3-1.4-0.5c-0.2-0.1-0.5-0.2-0.7-0.3c-0.1,0-0.2,0-0.3-0.1c0.1-0.1,0.1-0.3,0.1-0.4c0.1-0.5,0.3-1,0.4-1.5
						c0.3-1,0.5-2,0.8-3c0.1-0.3,0.2-0.6,0.2-0.9c0.1-0.2,0.2-0.5,0.3-0.7c0.2-0.3,0.1-0.5,0.1-0.7c0-0.1-0.2-0.4-0.5-0.5
						c-0.4-0.1-0.6-0.2-0.9-0.3C-41.4,44.3-41.5,44.3-41.5,44.3z M-43.2,51.8c0.1-0.2,0.2-0.5,0.2-0.7c0.1-0.5,0.3-1,0.4-1.5
						c0.3-1,0.5-2,0.8-3l0.3-1.3c0,0,0,0,0-0.1c0.2,0.1,0.3,0.1,0.5,0.2c-0.1,0.3-0.2,0.6-0.3,0.8c-0.1,0.3-0.1,0.6-0.2,0.9
						c-0.3,1-0.5,2-0.8,3c-0.1,0.5-0.3,1-0.4,1.5c0,0.2-0.1,0.4-0.2,0.5c-0.1,0.2-0.1,0.5,0,0.6c0,0,0,0,0,0
						c-0.1,0.1-0.2,0.2-0.3,0.4c-0.1,0.3-0.1,0.6-0.2,0.9l-0.4,2.1c0,0,0,0,0,0c0,0,0,0,0,0c0,0-0.1,0-0.1,0c-0.1,0-0.2-0.1-0.3-0.1
						c0.1-0.4,0.3-0.9,0.3-1.3c0.1-0.5,0.2-0.9,0.3-1.4c0.2-0.3,0.1-0.6,0-0.8c0,0,0,0,0,0C-43.4,52.3-43.3,52.1-43.2,51.8z
						 M-36.3,54.9c0.1-0.1,0.1-0.2,0.1-0.4c-0.1-0.7-0.2-1.3-0.4-2c-0.3-0.9-0.5-1.8-0.8-2.8c0-0.1-0.1-0.2-0.1-0.3c0,0,0.1,0,0.1,0
						c0.1,0,0.2,0,0.2,0c0.1,0.1,0.2,0.2,0.2,0.5c0.1,0.5,0.3,1,0.4,1.5c0.3,0.9,0.6,1.9,0.8,2.9c0.1,0.2,0.1,0.5,0.3,0.8
						c0,0,0,0,0,0c-0.1,0-0.2,0-0.3-0.1C-36,55-36.2,55-36.3,54.9z"/>
				</g>
				<g>
					<path class="st8" d="M-25.4,48.2c-0.3,0-0.5,0.1-0.7,0.3c0,0.1-0.1,0.1-0.1,0.2c-0.1,0.3,0,0.6,0.1,0.9
						c0.1,0.2,0.1,0.4,0.2,0.6c0.2,0.5,0.3,0.9,0.4,1.3c0.1,0.4,0.1,0.8,0,1.2c-0.2,1-0.4,2-0.6,3c-0.2,1-0.3,2.1-0.4,3.1
						c0,0.2,0,0.4-0.1,0.6c-0.1,0.3-0.1,0.6,0,0.9c0,0.1,0.1,0.2,0.2,0.2c0.3,0.2,0.7,0.3,1.1,0.3c0,0,0.1,0,0.2,0c0,0,0.2,0,0.2,0
						c0.1,0,0.2,0,0.4-0.1c0.1,0,0.1-0.1,0.1-0.1c0.2-0.2,0.3-0.5,0.3-0.8c0-0.4,0.1-0.8,0.1-1.3c0.1-1,0.2-2,0.4-3
						c0.1-0.5,0.2-1,0.3-1.5c0.1-0.5,0.2-1,0.3-1.5c0-0.8-0.2-1.6-0.5-2.3c-0.1-0.3-0.2-0.6-0.2-0.9c0-0.1,0-0.3-0.1-0.5
						c0-0.1,0-0.1-0.1-0.1c-0.2-0.2-0.4-0.3-0.6-0.4c0,0-0.1,0-0.1,0c0,0,0,0,0,0l0,0c-0.2,0-0.3,0-0.5-0.1
						C-25.2,48.2-25.3,48.2-25.4,48.2z M-25.5,59.7C-25.5,59.7-25.5,59.7-25.5,59.7c0,0,0-0.1,0-0.1c0.1-0.3,0.1-0.5,0.1-0.8
						c0.1-1,0.2-2,0.4-3c0.2-1,0.4-2,0.6-3c0.1-0.5,0.1-1.1,0-1.6c-0.1-0.5-0.3-1-0.4-1.4c-0.1-0.2-0.1-0.4-0.2-0.6
						c0.1,0,0.3,0,0.4,0c0,0,0,0,0,0c0,0,0,0.1,0,0.1c0.1,0.4,0.1,0.8,0.3,1.2c0.2,0.6,0.4,1.2,0.4,1.9c0,0.4-0.1,0.9-0.2,1.3
						c-0.1,0.5-0.2,1-0.3,1.6c-0.2,1-0.3,2-0.4,3.1c-0.1,0.4-0.1,0.9-0.1,1.4c-0.1,0-0.1,0-0.2,0C-25.5,59.8-25.5,59.8-25.5,59.7z
						 M-31,51.4c0,0-0.1,0-0.1,0c-0.1,0-0.2,0-0.2,0.1c-0.3,0.2-0.5,0.5-0.5,0.8c-0.1,0.5-0.2,0.9-0.3,1.4c-0.2,1-0.3,2-0.4,3.1
						c0,0.2-0.1,0.4-0.1,0.7c0,0.2-0.1,0.4-0.1,0.6c-0.2,0.3-0.1,0.6,0.1,0.9c0.2,0.2,0.3,0.2,0.4,0.3c0.1,0,0.1,0,0.2,0.1
						c0.1,0,0.2,0,0.3,0c0.2,0.1,0.5,0.2,0.7,0.2c0.1,0,0.2,0,0.3-0.1c0.3-0.2,0.5-0.4,0.5-0.8c0.1-0.5,0.1-1,0.2-1.4
						c0.1-1,0.3-2,0.4-3c0-0.2,0.1-0.4,0.1-0.6c0.1-0.2,0.1-0.5,0.2-0.7c0.2-0.3,0.2-0.6,0-0.9c0-0.1-0.1-0.1-0.2-0.2
						c-0.3-0.2-0.6-0.3-0.9-0.3C-30.7,51.4-30.9,51.4-31,51.4z M-31.9,58.3c0.1-0.2,0.1-0.5,0.1-0.8c0-0.2,0.1-0.4,0.1-0.7
						c0.1-1,0.3-2,0.4-3c0.1-0.5,0.2-1,0.3-1.5c0.1,0,0.1,0,0.2,0c0.1,0,0.2,0,0.3,0c0,0,0,0,0,0c-0.1,0.2-0.1,0.5-0.2,0.7
						c-0.1,0.2-0.1,0.4-0.2,0.7c-0.2,1.1-0.3,2.1-0.4,3.1c0,0.5-0.1,0.9-0.2,1.4c0,0-0.1,0-0.1-0.1c0,0-0.1,0-0.1,0
						C-31.7,58.3-31.8,58.3-31.9,58.3z"/>
				</g>
			</g>
		</g>
		<g class="st4">
			<g>
				<path class="st8" d="M-58.4,49.8c-0.2,0-0.4,0-0.6,0c-0.2,0.1-0.2,0.2-0.1,0.3c0.1,0.1,0.3,0.2,0.5,0.2c0.2,0.1,0.5,0.1,0.7,0.2
					c1,0.3,2,0.5,3,0.7c1,0.1,2,0.3,3,0.5c0.2,0,0.5,0.1,0.7,0.1c0.2,0,0.4,0,0.6,0c0.1-0.1,0.2-0.2,0.1-0.3
					c-0.1-0.1-0.2-0.2-0.4-0.2c-0.3,0-0.5-0.1-0.8-0.1c-0.3,0-0.6-0.1-0.9-0.1c-0.3-0.1-0.6-0.1-1-0.2c-0.3,0-0.7-0.1-1-0.2
					c-0.3-0.1-0.6-0.1-0.9-0.2c-0.3-0.1-0.6-0.2-0.9-0.3C-57.1,50.1-57.8,50-58.4,49.8z M-57.8,43.3c-0.1,0-0.2,0-0.3,0
					c-0.1,0-0.2-0.1-0.3-0.1c-0.2,0-0.4,0-0.6,0c-0.1,0.1,0,0.3,0.1,0.3s0.3,0.2,0.5,0.2c0.4,0.1,0.9,0.2,1.4,0.3
					c0.5,0.1,1,0.2,1.5,0.3c0.2,0,0.5,0.1,0.7,0.1c0.3,0.1,0.5,0.1,0.8,0.2c0.5,0.1,1,0.2,1.5,0.3c1,0.2,2,0.4,3,0.6
					c0.2,0,0.4,0.1,0.7,0.1c0.2,0,0.4,0.1,0.6,0c0.2-0.1,0.2-0.2,0.2-0.4c-0.1-0.2-0.3-0.2-0.5-0.2c-0.5,0-1-0.1-1.5-0.2
					c-0.5-0.1-1-0.2-1.5-0.2c-1-0.2-2-0.4-3-0.7c-1-0.1-2-0.4-2.9-0.7C-57.6,43.4-57.7,43.3-57.8,43.3z"/>
			</g>
			<g>
				<path class="st8" d="M-41.5,44.8c-0.3,0-0.5,0.2-0.5,0.5c-0.1,0.4-0.2,0.8-0.3,1.3c-0.3,1-0.5,2-0.8,3c-0.1,0.5-0.2,1-0.4,1.5
					c-0.1,0.2-0.1,0.5-0.2,0.7c0,0.2-0.1,0.4-0.2,0.5c-0.2,0-0.4-0.1-0.5-0.2c-0.2-0.1-0.5-0.2-0.7-0.3c-0.2-0.1-0.5-0.1-0.7-0.2
					c-0.2,0-0.4,0-0.5,0.1c0,0.3,0.1,0.4,0.5,0.5c0.2,0.1,0.4,0.1,0.6,0.2c0.2,0.1,0.5,0.2,0.7,0.2c0.2,0,0.4,0.1,0.5,0.2
					c0.1,0.1,0.1,0.3,0,0.5c-0.2,0.5-0.3,0.9-0.3,1.4c-0.1,0.5-0.2,0.9-0.3,1.4c-0.1,0.1-0.1,0.3,0,0.4c0.2,0.1,0.4,0.2,0.7,0.2
					c0.2,0.1,0.3,0.1,0.5,0.1c0.1-0.1,0.2-0.3,0.2-0.4c0.1-0.5,0.2-0.9,0.3-1.4l0.1-0.7c0-0.3,0.1-0.5,0.1-0.8
					c0.1-0.2,0.2-0.2,0.3-0.2c0.2,0.1,0.5,0.2,0.7,0.3c0.5,0.2,1,0.3,1.4,0.5c0.5,0.2,1,0.3,1.5,0.5c0.5,0.2,0.9,0.3,1.4,0.5
					c0.4,0.2,0.9,0.4,1.4,0.6c0.3,0.1,0.6,0.1,0.9,0c0.1-0.2,0.1-0.4,0-0.6c-0.1-0.2-0.2-0.5-0.2-0.7c-0.2-1-0.5-2-0.8-2.9
					c-0.1-0.5-0.3-0.9-0.4-1.4c0-0.4-0.2-0.7-0.6-0.9c-0.1,0-0.2,0-0.3,0c-0.1,0-0.2-0.1-0.3-0.1c-0.2,0-0.3,0-0.5,0
					c-0.1,0.1-0.1,0.2,0,0.3c0.1,0.2,0.2,0.4,0.3,0.6c0.3,0.9,0.5,1.9,0.8,2.8c0.2,0.6,0.3,1.2,0.4,1.9c-0.2-0.1-0.4-0.1-0.7-0.2
					c-0.3-0.1-0.5-0.2-0.7-0.3c-0.5-0.2-1-0.3-1.5-0.5c-0.5-0.2-1-0.3-1.4-0.5c-0.2-0.1-0.5-0.2-0.7-0.2c-0.2,0-0.4-0.1-0.6-0.2
					c-0.2-0.1-0.2-0.2-0.1-0.3c0.1-0.2,0.2-0.4,0.2-0.6c0.1-0.5,0.3-1,0.4-1.5c0.2-1,0.5-2,0.8-3c0.1-0.3,0.2-0.6,0.2-0.9
					c0.1-0.3,0.2-0.6,0.3-0.8c0.1-0.2,0.1-0.4-0.1-0.5C-40.9,45-41.2,44.9-41.5,44.8z"/>
			</g>
			<g>
				<path class="st8" d="M-30.5,52c-0.2,0-0.4-0.1-0.6,0c-0.1,0.1-0.2,0.2-0.2,0.4c-0.1,0.5-0.2,1-0.3,1.5c-0.2,1-0.3,2-0.4,3
					c0,0.2-0.1,0.5-0.1,0.7c0,0.2-0.1,0.5-0.1,0.7c-0.1,0.1-0.1,0.3,0,0.4c0.1,0.1,0.1,0.1,0.2,0.2c0.1,0,0.3,0,0.4,0.1
					c0.2,0.1,0.4,0.1,0.6,0.1c0.2-0.1,0.2-0.2,0.3-0.4c0.1-0.5,0.1-1,0.2-1.5c0.1-1,0.3-2.1,0.4-3.1c0-0.2,0.1-0.5,0.2-0.7
					c0-0.2,0.1-0.5,0.2-0.7c0.1-0.2,0.1-0.3,0-0.5C-30.1,52-30.3,52-30.5,52z M-24.6,48.8c-0.2,0-0.4,0-0.6-0.1
					c-0.2-0.1-0.4,0-0.5,0.1c0,0.2,0,0.4,0.1,0.5c0.1,0.2,0.1,0.4,0.2,0.7c0.2,0.4,0.3,0.9,0.4,1.4c0.1,0.5,0.1,0.9,0,1.4
					c-0.2,1-0.4,2-0.6,3c-0.2,1-0.3,2-0.4,3c0,0.2,0,0.5-0.1,0.7c-0.1,0.2-0.1,0.4,0,0.6c0.2,0.2,0.5,0.2,0.8,0.2c0.1,0,0.2,0,0.3,0
					c0.1,0,0.2,0,0.2,0c0.1-0.1,0.2-0.3,0.1-0.4c0-0.5,0.1-1,0.1-1.4c0.1-1,0.2-2,0.4-3c0.1-0.5,0.2-1,0.3-1.5
					c0.1-0.5,0.2-1,0.3-1.5c0-0.7-0.2-1.4-0.4-2c-0.1-0.3-0.2-0.7-0.3-1c0-0.1,0-0.3-0.1-0.4C-24.3,48.9-24.4,48.8-24.6,48.8z"/>
			</g>
		</g>
	</g>
	<g class="st3">
		<g class="st4">
			<path class="st10" d="M-5.7,57.8c-4.8-2-5.8-3.2-6.5-8.4c-2,4.8-3.2,5.8-8.4,6.5c4.8,2,5.8,3.2,6.5,8.4
				C-12.1,59.6-10.9,58.6-5.7,57.8z"/>
		</g>
	</g>
	<g>
		<g>
			<path class="st11" d="M43.9-8.7c0,0-5.9,6.8-6.7,6.3c-0.8-0.5,1.1-6.4-0.4-7.3L43.9-8.7z"/>
		</g>
	</g>
	<g>
		<g>
			<path class="st11" d="M7.9-38.3c7.7-1.6,23.2-8.3,28.4-13.2c0,0,6.3,9.3,15.5,13s13.2,6.7,13.2,6.7L42.5-11.4l-12.2-6.4L5.1-28.1
				L7.9-38.3z"/>
		</g>
	</g>
	<g>
		<g>
			<g>
				<path class="st12" d="M-12.4-17.7c-3-1.8-8.3-6.1-11.8-5c0,0-0.7,2.8-3.7,2.9s-4.9-2-3.5-5.7s5.3-4.8,7.4-4.4
					c2,0.4,9.2,3.4,9.2,3.4"/>
			</g>
		</g>
		<g>
			<g>
				<path class="st12" d="M2.9-21.1c10.2-2.3,15.3-1.6,23.5,3.4s9.5,7.6,10.3,9.6S42-6.7,45-9.7s21.5-22.6,21.5-22.6
					s1.1-2.7-1.3-0.8c-2.4,1.9-19,17.2-20.6,17.1c-1.7,0,2,0-0.4-14.5C41.8-45,38-52,36.4-53.3c-1.5-1.2-1.9-1.4,0,4.4
					c1.9,5.8,3.6,11.1,4.4,18.5s-0.5,16.3-2.3,16.1c-1.8-0.1-9.1-9.2-16.5-13S9.7-33.6,6.5-32.5L2.9-21.1z"/>
			</g>
		</g>
		<g>
			<g>
				<path class="st12" d="M12.7-21.6c3.9-4.2,5-7.1,9.4-9c0,0,2.6,0.7,4,0c1.6-0.8,2.6-3.8,0.6-6.2c-1.8-2.1-5.3-1.8-7,0.1
					c0,0-4.4,1.6-6.5,3.7s-4,4.5-4,4.5"/>
			</g>
		</g>
		<g>
			<g>
				<path class="st12" d="M-17.2-49.3c1.9-0.5,4.1-1.2,2.8-4.4s-2-3.4-4.3-2.8s-7.3,3-9.1-0.6s2.9-6.7,7.1-7.2
					c4.1-0.5,9.1,0.8,10.8,2.3c1.7,1.5,1.3,3.8,1.1,7.8s-0.9,5.8,3.1,7.3"/>
			</g>
		</g>
		<g>
			<g>
				<path class="st12" d="M8.5-49.3c-1.9-0.5-4.1-1.2-2.8-4.4s2-3.4,4.3-2.8s7.3,3,9.1-0.6c1.8-3.6-2.9-6.7-7.1-7.2
					C7.9-64.8,2.9-63.5,1.2-62c-1.7,1.5-1.3,3.8-1.1,7.8S1-48.4-3-46.9"/>
			</g>
		</g>
		<g>
			<g>
				<path class="st12" d="M-14-15.6c0,0-3.5-7.5-6.8-14.2s-4.7-19.8,0.7-25.3s12.9-4.9,25.6-3.8c12.7,1.1,9.3,4.3,7.6,11.2
					s-0.2,14,0,19s1.1,13.8,1.1,13.8L-14-15.6z"/>
			</g>
		</g>
	</g>
	<g>
		<g>
			<g>
				<g>
					<path class="st11" d="M-3.9,13.6c17,1.5,18.5,9.5,18.2,14.3C13.9,32.6,8.1,38.8,5.4,40c0,0,2.5,4.2,8.6,3.3
						c6.2-0.9,9.6-4.7,10.6-9c1-4.2,0.8-11.4-3.3-15.4S8.9,9.8-3.5,8.7"/>
				</g>
			</g>
			<g>
				<g>
					<path class="st11" d="M-7.4,13.3c-17-1.5-19.9,6.2-20.4,11c-0.5,4.7,4.2,11.8,6.7,13.5c0,0-3.2,3.7-9.1,1.8
						c-5.9-1.9-8.6-6.3-8.9-10.7c-0.3-4.3,1.2-11.4,5.9-14.6S-19.3,7.3-7,8.4"/>
				</g>
			</g>
		</g>
		<g>
			<g>
				<path class="st12" d="M29.8,6.5c-1.3,15.6-7,27.8-37,25.2S-40.7,16.1-39.3,0.5c1.3-15.6,7-27.8,37-25.2S31.1-9.1,29.8,6.5z"/>
			</g>
		</g>
		<g>
			<g>
				<path class="st2" d="M22,5.8c-1,12.1-5.4,21.6-28.7,19.5S-32.6,13.2-31.6,1.2s5.4-21.6,28.7-19.5S23-6.3,22,5.8z"/>
			</g>
		</g>
		<g>
			<g>
				<g>
					
						<ellipse transform="matrix(0.9963 -8.616812e-02 8.616812e-02 0.9963 0.3989 -1.9414)" class="st5" cx="-22.3" cy="-5.6" rx="4.5" ry="4.5"/>
				</g>
			</g>
			<g>
				<g>
					
						<ellipse transform="matrix(0.9963 -8.616812e-02 8.616812e-02 0.9963 0.2635 1.1976)" class="st5" cx="14" cy="-2.5" rx="4.5" ry="4.5"/>
				</g>
			</g>
		</g>
		<g>
			<g>
				<g>
					<path class="st11" d="M11.8,10c0.7-0.7,1-1.8,1.1-3.1c0.2-2.4-0.3-4.4-3.3-4.6s-3.8,1.6-4,4c0,0.5-0.1,1,0,1.5L11.8,10z"/>
				</g>
			</g>
			<g>
				<g>
					<path class="st11" d="M-22.5,7.1c-0.5-0.8-0.6-2-0.5-3.2c0.2-2.4,1.1-4.3,4-4s3.5,2.3,3.3,4.6c0,0.5-0.1,1-0.2,1.5L-22.5,7.1z"
						/>
				</g>
			</g>
		</g>
		<path class="st11" d="M8.3-6.6C8.7-5.4,6.5-2,5.5-1.7C4.8-1.4,3.5-4,2.8-5.6c-1,0-2.1-0.1-3.3-0.2C-1.9-5.9-3-6.1-4.1-6.3
			c-1.1-0.1-2.3-0.3-3.6-0.6c-5.9-1.2-9.3-2.6-8-3.9c1.3-1.4,3-1.4,6.7-0.1c1.6,0.6,3.5,1,5.4,1.3c1.8,0.3,3.8,0.4,5.5,0.3
			c3.9-0.1,5.6,0.4,6.4,2.1C8.4-7,8.4-6.8,8.3-6.6L8.3-6.6z"/>
	</g>
	<g>
		<g>
			<g>
				
					<rect x="-49.1" y="-23.1" transform="matrix(-0.8101 0.5863 -0.5863 -0.8101 -88.4161 5.0985)" class="st0" width="8.1" height="22.7"/>
			</g>
		</g>
		<g>
			<g>
				
					<rect x="-52.1" y="-24.8" transform="matrix(-0.5863 -0.8101 0.8101 -0.5863 -65.304 -65.5109)" class="st0" width="5.4" height="17.5"/>
			</g>
		</g>
		<g>
			<g>
				
					<rect x="-59.7" y="-20.9" transform="matrix(-0.5863 -0.8101 0.8101 -0.5863 -80.4234 -61.5662)" class="st0" width="7.4" height="21.3"/>
			</g>
		</g>
		<g>
			<g>
				<path class="st0" d="M-45-43.6c4.9-6.8,10.9-10.9,24-1.4s11.1,16.4,6.2,23.2c-4.9,6.8-10.9,10.9-24,1.4S-49.9-36.8-45-43.6z
					 M-38.9-39.1c-2.9,4-4.1,8.1,3.7,13.8s11.3,3.2,14.2-0.8c2.9-4,4.1-8.1-3.7-13.8S-35.9-43.2-38.9-39.1z"/>
			</g>
		</g>
	</g>
	<g>
		<g>
			<path class="st12" d="M-24.2-22.7c0,0-0.7,2.8-3.7,2.9s-4.9-2-3.5-5.7s5.3-4.8,7.4-4.4"/>
		</g>
	</g>
</symbol>
<rect class="st13" width="300" height="36"/>
<g>
	<g>
		<path class="st2" d="M162.5,29.3c0,2-1.6,3.4-3.5,3.4c-2,0-3.6-1.4-3.6-3.4c0-2,1.6-3.4,3.6-3.4C160.8,25.9,162.5,27.3,162.5,29.3
			z M160.5,29.3c0-1-0.8-1.7-1.6-1.7c-0.8,0-1.6,0.7-1.6,1.7c0,1,0.8,1.7,1.6,1.7C159.7,31,160.5,30.3,160.5,29.3z"/>
		<path class="st2" d="M170.5,29.3c0,2-1.4,3.4-3.1,3.4c-0.8,0-1.5-0.3-2-0.7v2.7h-2.1v-8.6h2.1v0.5c0.5-0.4,1.2-0.7,2-0.7
			C169,25.9,170.5,27.3,170.5,29.3z M168.5,29.3c0-1-0.7-1.7-1.6-1.7c-0.8,0-1.6,0.7-1.6,1.7c0,1,0.7,1.7,1.6,1.7
			C167.8,31,168.5,30.3,168.5,29.3z"/>
		<path class="st2" d="M177.9,29.8h-4.7c0.2,0.8,0.7,1.2,1.4,1.2c0.5,0,1-0.1,1.4-0.7l1.8,0.4c-0.6,1.4-1.7,2-3.2,2
			c-1.9,0-3.4-1.4-3.4-3.4c0-2,1.5-3.4,3.4-3.4c1.8,0,3.3,1.3,3.3,3.4V29.8z M173.2,28.6h2.7c-0.2-0.7-0.7-1-1.3-1
			C174,27.6,173.4,27.9,173.2,28.6z"/>
		<path class="st2" d="M185.5,28.6v4h-2V29c0-0.8-0.4-1.3-1.1-1.3c-0.8,0-1.3,0.6-1.3,1.8v3h-2.1v-6.4h2.1v0.6
			c0.5-0.5,1.2-0.8,2-0.8C184.5,25.9,185.5,27,185.5,28.6z"/>
		<path class="st2" d="M188.4,30.4c0.1,0.6,0.6,0.8,1.1,0.8c0.5,0,0.8-0.2,0.8-0.5c0-0.2-0.2-0.4-0.6-0.5l-1.3-0.3
			c-1.2-0.2-1.9-0.9-1.9-1.9c0-1.3,1.1-2.2,2.8-2.2c1.6,0,2.7,0.7,2.9,1.8l-1.9,0.4c-0.1-0.4-0.4-0.8-1.1-0.8
			c-0.6,0-0.7,0.3-0.7,0.5c0,0.2,0.1,0.4,0.5,0.4l1.5,0.3c1.2,0.3,1.8,1,1.8,1.9c0,1.4-1.2,2.2-2.9,2.2c-1.5,0-2.8-0.6-3-1.9
			L188.4,30.4z"/>
		<path class="st2" d="M200.2,29.3c0,2-1.6,3.4-3.5,3.4c-2,0-3.6-1.4-3.6-3.4c0-2,1.6-3.4,3.6-3.4C198.5,25.9,200.2,27.3,200.2,29.3
			z M198.2,29.3c0-1-0.8-1.7-1.6-1.7c-0.8,0-1.6,0.7-1.6,1.7c0,1,0.8,1.7,1.6,1.7C197.4,31,198.2,30.3,198.2,29.3z"/>
		<path class="st2" d="M207.7,32.5h-2.1v-0.6c-0.5,0.5-1.2,0.8-2,0.8c-1.5,0-2.5-1.1-2.5-2.7v-4h2v3.5c0,0.8,0.4,1.3,1.1,1.3
			c0.8,0,1.3-0.6,1.3-1.8v-3h2.1V32.5z"/>
		<path class="st2" d="M213.9,26.1l-0.1,2.1h-0.4c-1.4,0-2.2,0.7-2.2,2.4v2h-2.1v-6.4h2.1v1.2c0.5-0.8,1.2-1.3,2.2-1.3
			C213.6,26,213.7,26,213.9,26.1z"/>
		<path class="st2" d="M219.3,29.8l1.9,0.4c-0.3,1.5-1.7,2.5-3.3,2.5c-1.9,0-3.5-1.4-3.5-3.4c0-2,1.6-3.4,3.5-3.4
			c1.6,0,2.9,1,3.3,2.5l-1.9,0.5c-0.2-0.8-0.7-1.1-1.4-1.1c-0.9,0-1.5,0.7-1.5,1.6c0,1,0.6,1.6,1.5,1.6
			C218.5,30.9,219.1,30.6,219.3,29.8z"/>
		<path class="st2" d="M228.5,29.8h-4.7c0.2,0.8,0.7,1.2,1.4,1.2c0.5,0,1-0.1,1.4-0.7l1.8,0.4c-0.6,1.4-1.7,2-3.2,2
			c-1.9,0-3.4-1.4-3.4-3.4c0-2,1.5-3.4,3.4-3.4c1.8,0,3.3,1.3,3.3,3.4V29.8z M223.9,28.6h2.7c-0.2-0.7-0.7-1-1.3-1
			C224.6,27.6,224,27.9,223.9,28.6z"/>
	</g>
	<g>
		<path class="st2" d="M84.7,8.3l-4.1,0.8c-0.3-1.6-1.6-2.4-2.9-2.4c-1.4,0-2.3,0.8-2.3,1.7c0,0.7,0.3,1.2,1.4,1.4l3.5,0.8
			c2.9,0.7,4.6,2.2,4.6,4.9c0,3.6-3.2,5.4-6.9,5.4c-3.8,0-6.9-1.8-7.3-5.1l4.3-0.8c0.4,1.7,1.6,2.5,3.3,2.5c1.6,0,2.5-0.7,2.5-1.7
			c0-0.8-0.3-1.2-1.5-1.5l-3.5-0.8c-2.4-0.6-4.5-1.8-4.5-4.9c0-3.3,2.7-5.3,6.6-5.3C81.4,3.5,84,5.3,84.7,8.3z"/>
		<path class="st2" d="M97.3,14.9h-8c0.3,1.3,1.2,2.1,2.3,2.1c0.8,0,1.7-0.2,2.3-1.3l3.1,0.6c-0.9,2.3-2.9,3.4-5.4,3.4
			c-3.1,0-5.7-2.3-5.7-5.8c0-3.4,2.6-5.8,5.8-5.8c3.1,0,5.5,2.2,5.6,5.8V14.9z M89.4,12.8h4.5c-0.3-1.2-1.2-1.7-2.2-1.7
			C90.7,11.1,89.7,11.7,89.4,12.8z"/>
		<path class="st2" d="M106.6,14.8l3.2,0.7c-0.5,2.6-2.8,4.2-5.5,4.2c-3.2,0-5.9-2.3-5.9-5.8c0-3.4,2.7-5.8,5.9-5.8
			c2.6,0,4.9,1.6,5.5,4.2l-3.2,0.8c-0.3-1.3-1.2-1.9-2.3-1.9c-1.6,0-2.6,1.1-2.6,2.7c0,1.6,1,2.7,2.6,2.7
			C105.4,16.7,106.2,16.2,106.6,14.8z"/>
		<path class="st2" d="M122,19.4h-3.5v-1c-0.8,0.9-2,1.4-3.3,1.4c-2.5,0-4.2-1.8-4.2-4.5V8.6h3.4v5.9c0,1.3,0.8,2.1,1.9,2.1
			c1.4,0,2.2-0.9,2.2-3v-5h3.5V19.4z"/>
		<path class="st2" d="M132.1,8.5l-0.2,3.5h-0.6c-2.4,0-3.7,1.3-3.7,4.1v3.4h-3.5V8.6h3.5v2.1c0.8-1.3,2-2.2,3.7-2.2
			C131.6,8.4,131.8,8.5,132.1,8.5z"/>
		<path class="st2" d="M137,5.4c0,1.1-0.8,1.9-2,1.9s-2-0.8-2-1.9c0-1.1,0.8-2,2-2S137,4.3,137,5.4z M133.3,19.4V8.6h3.5v10.9H133.3
			z"/>
		<path class="st2" d="M147,19c-0.8,0.5-1.7,0.8-3,0.8c-2.7,0-4.3-1.5-4.3-4.3v-4.1h-2V8.6h2V5h3.5v3.6h3.2v2.7h-3.2v3.8
			c0,1.1,0.5,1.6,1.4,1.6c0.5,0,1.1-0.2,1.6-0.4L147,19z"/>
		<path class="st2" d="M153.5,24.6h-3.7l2.4-5.6l-4.5-10.5h3.7l2.6,6.3l2.7-6.3h3.7L153.5,24.6z"/>
		<path class="st2" d="M180.6,10.7c0.1,0.6,0.1,1.1,0.1,1.5c0,5.1-3.6,8.7-8.7,8.7c-5.1,0-9-3.8-9-8.8c0-4.9,3.9-8.8,9-8.8
			c3.7,0,7,1.8,8.2,5l-4,1.2c-1-1.9-2.6-2.4-4.2-2.4c-2.7,0-4.8,2.2-4.8,5c0,2.9,2.1,5,4.9,5c2.2,0,3.8-1.2,4.4-3h-5.1v-3.5H180.6z"
			/>
		<path class="st2" d="M190.3,8.5l-0.2,3.5h-0.6c-2.4,0-3.7,1.3-3.7,4.1v3.4h-3.5V8.6h3.5v2.1c0.8-1.3,2-2.2,3.7-2.2
			C189.9,8.4,190.1,8.5,190.3,8.5z"/>
		<path class="st2" d="M203,14c0,3.4-2.7,5.7-5.9,5.7c-3.3,0-6-2.3-6-5.7c0-3.4,2.7-5.7,6-5.7C200.3,8.3,203,10.6,203,14z M199.7,14
			c0-1.7-1.3-2.8-2.6-2.8c-1.4,0-2.7,1.1-2.7,2.8c0,1.7,1.3,2.8,2.7,2.8C198.4,16.8,199.7,15.7,199.7,14z"/>
		<path class="st2" d="M215.3,19.4h-3.5v-1c-0.8,0.9-2,1.4-3.3,1.4c-2.5,0-4.2-1.8-4.2-4.5V8.6h3.4v5.9c0,1.3,0.8,2.1,1.9,2.1
			c1.4,0,2.2-0.9,2.2-3v-5h3.5V19.4z"/>
		<path class="st2" d="M229.5,14c0,3.4-2.4,5.8-5.3,5.8c-1.4,0-2.5-0.4-3.4-1.2v6.1h-3.5v-16h3.5v0.9c0.8-0.8,2-1.2,3.4-1.2
			C227,8.3,229.5,10.6,229.5,14z M226.1,14c0-1.7-1.1-2.8-2.6-2.8c-1.4,0-2.7,1.1-2.7,2.8c0,1.7,1.3,2.8,2.7,2.8
			C225,16.8,226.1,15.7,226.1,14z"/>
	</g>
</g>
<g>
	<defs>
		<rect id="SVGID_1_" width="300" height="36"/>
	</defs>
	<clipPath id="SVGID_2_">
		<use xlink:href="#SVGID_1_"  style="overflow:visible;"/>
	</clipPath>
	<g class="st14">
		<g>
			<g>
				<g>
					<circle class="st2" cx="18.5" cy="16.8" r="17.5"/>
					<g>
						<defs>
							<circle id="SVGID_15_" cx="18.5" cy="16.8" r="17.5"/>
						</defs>
						<clipPath id="SVGID_3_">
							<use xlink:href="#SVGID_15_"  style="overflow:visible;"/>
						</clipPath>
						<g class="st15">
							<g>
								<g>
									<g>
										<g>
											<path class="st16" d="M17.7,35.1c0.6,0,1.3,0.1,1.1,1.2s-0.4,1.2-1.1,1.1c-0.7-0.1-2.4-0.5-2.7,0.7
												c-0.3,1.2,1.3,1.9,2.6,1.8s2.7-0.8,3.1-1.4c0.4-0.6,0.2-1.2-0.2-2.4c-0.3-1.2-0.6-1.7,0.5-2.4"/>
										</g>
									</g>
									<g>
										<g>
											<path class="st16" d="M25.5,33.6c-0.5,0.3-1.2,0.6-0.6,1.5c0.6,0.9,0.8,0.9,1.5,0.6s2-1.4,2.8-0.4c0.8,1-0.5,2.2-1.7,2.6
												s-2.8,0.3-3.4,0s-0.6-1.1-0.8-2.3s-0.1-1.8-1.4-2"/>
										</g>
									</g>
									<g>
										<g>
											<path class="st16" d="M16.3,31.6c-1.5-0.7-9.2-4.8-9-6.4s1.9-1.3,2-0.8c0,0,2.2,1.5,4.1,1.8L16.3,31.6z"/>
										</g>
									</g>
									<g>
										<g>
											<path class="st16" d="M22.8,21.8c1.6,0.5,9.7,3.6,9.7,5.3c0,1.6-1.7,1.5-1.9,1c0,0-2.3-1.3-4.3-1.3L22.8,21.8z"/>
										</g>
									</g>
								</g>
								<g>
									<g>
										<path class="st16" d="M19.2,22.2l5.7-1.1c0,0,6.8,12.6,5.8,13.3s-4,1.6-8.6,2.6c-4.6,0.9-7.7,1.2-8.9,0.9
											c-1.2-0.2,0.2-14.5,0.2-14.5L19.2,22.2z"/>
									</g>
								</g>
								<g>
									<g>
										<g>
											
												<rect x="14.7" y="1.6" transform="matrix(0.9804 -0.1968 0.1968 0.9804 -0.6569 3.2018)" class="st16" width="2.2" height="6.5"/>
										</g>
									</g>
									<g>
										<g>
											
												<rect x="17" y="-1.7" transform="matrix(-0.1968 -0.9804 0.9804 -0.1968 19.6847 21.1813)" class="st16" width="3" height="8.5"/>
										</g>
									</g>
									<g>
										<g>
											<path class="st16" d="M6.7,18.8c1,5.1,4.7,8.7,13.3,7s10.6-6.4,9.5-11.6c-1-5.1-4.7-8.7-13.3-7S5.7,13.7,6.7,18.8z"/>
										</g>
									</g>
								</g>
								<g>
									<g>
										<path class="st16" d="M9.2,18.3c0.8,4,3.7,6.8,10.4,5.5s8.3-5.1,7.5-9.1s-3.7-6.8-10.4-5.5S8.4,14.3,9.2,18.3z"/>
									</g>
								</g>
								<g>
									<g>
										<g>
											<path class="st16" d="M20.1,29.3c0,0-0.2-3,0-3c0.2,0,1.2,2.8,1.2,2.8L20.1,29.3z"/>
										</g>
									</g>
									<g>
										<g>
											<path class="st16" d="M20.8,29.8c0,0-6.7,1-6.8,0.7c-0.1-0.3,6.5-1.9,6.5-1.9L20.8,29.8z"/>
										</g>
									</g>
									<g>
										<g>
											<path class="st16" d="M20.8,29.8c0,0,6.6-1.7,6.5-1.9c-0.1-0.3-6.8,0.7-6.8,0.7L20.8,29.8z"/>
										</g>
									</g>
									<g>
										<g>
											<path class="st16" d="M20.1,29.3c0,0,1.7,6.8,2,6.7c0.3-0.1-0.8-7-0.8-7L20.1,29.3z"/>
										</g>
									</g>
								</g>
								<g class="st3">
									<g class="st4">
										<g>
											
												<ellipse transform="matrix(0.9804 -0.1968 0.1968 0.9804 -3.7596 2.8084)" class="st16" cx="12.2" cy="20.3" rx="1.6" ry="1.6"/>
										</g>
										<g>
											
												<ellipse transform="matrix(0.9804 -0.1968 0.1968 0.9804 -3.0071 5.2653)" class="st16" cx="25" cy="17.8" rx="1.6" ry="1.6"/>
										</g>
									</g>
									<g class="st4">
										<g>
											
												<ellipse transform="matrix(0.9804 -0.1968 0.1968 0.9804 -3.7596 2.8084)" class="st16" cx="12.2" cy="20.3" rx="1.6" ry="1.6"/>
										</g>
										<g>
											
												<ellipse transform="matrix(0.9804 -0.1968 0.1968 0.9804 -3.0071 5.2653)" class="st16" cx="25" cy="17.8" rx="1.6" ry="1.6"/>
										</g>
									</g>
								</g>
								<g>
									<g>
										<g>
											<path class="st16" d="M14.5,16.5c0.1,0.6,0,1.2-1,1.4s-1.3-0.3-1.4-0.9c-0.1-0.6,0-1.2,1-1.4
												C14,15.4,14.4,15.9,14.5,16.5z"/>
										</g>
									</g>
									<g>
										<g>
											<path class="st16" d="M23.9,14.7c0.1,0.6,0,1.2-1,1.4c-1,0.2-1.3-0.3-1.4-0.9c-0.1-0.6,0-1.2,1-1.4
												C23.4,13.5,23.7,14,23.9,14.7z"/>
										</g>
									</g>
								</g>
								<path class="st16" d="M21.7,18.4c-0.1,0.3-0.4,0.7-0.7,0.9c-0.6,0.3-1.1-0.5-1.4-0.9c-0.1-0.2-0.4-0.2-0.7-0.2
									c-0.6,0-1.3,0.2-1.3,0.5c-0.1,0.6-0.4,1.3-1,1.5c-0.2,0-0.2,0-0.5-0.2c-0.1-0.1-0.3-0.2-0.4-0.3c-0.5-0.4-2.4,0.2-2,0.5
									c0.9,0.8,2.1,1,3.3,0.7c0.8-0.2,1.5-0.5,2-1c0.7,0.3,1.4,0.3,2.2,0.1c1.1-0.2,2.2-0.7,2.7-1.8C24,17.8,21.9,17.8,21.7,18.4z
									"/>
							</g>
							
								<use xlink:href="#パーくん"  width="68.2" height="106.5" x="-34.1" y="-53.2" transform="matrix(0.3496 -7.019074e-02 -7.019074e-02 -0.3496 18.7016 20.343)" style="overflow:visible;"/>
						</g>
					</g>
				</g>
			</g>
			<g>
				<g>
					<circle class="st2" cx="51.7" cy="18.6" r="17.5"/>
					<g>
						<defs>
							<circle id="SVGID_14_" cx="51.7" cy="18.6" r="17.5"/>
						</defs>
						<clipPath id="SVGID_4_">
							<use xlink:href="#SVGID_14_"  style="overflow:visible;"/>
						</clipPath>
						<g class="st17">
							<g>
								<g class="st3">
									<g class="st4">
										<g>
											<g>
												<path class="st18" d="M40.9,1.8c-0.1,0-0.1,0-0.2-0.1c0,0-0.1-0.1-0.1-0.1c0-0.1,0-0.1,0-0.2c0,0,0.1-0.1,0.2-0.1l0.2,0
													c0.2,0,0.3,0,0.5,0c0.2,0,0.3,0,0.5,0.1c0.1,0,0.2,0,0.2,0c0.1,0,0.2,0,0.2,0c0.2,0,0.3,0,0.5,0.1c0.3,0,0.7,0.1,1,0.1
													c0.1,0,0.2,0,0.2,0c0.1,0,0.1,0,0.2,0.1c0,0,0,0,0,0c0.1,0.1,0.1,0.2,0,0.3c0,0,0,0,0,0c-0.1,0.1-0.2,0.1-0.3,0
													c-0.1,0-0.3-0.1-0.4-0.1c-0.2,0-0.3-0.1-0.5-0.1c-0.3,0-0.6-0.1-1-0.1c-0.3-0.1-0.6-0.1-1-0.1c0,0,0,0-0.1,0
													c0,0,0,0-0.1,0c0,0-0.1,0-0.1,0c0,0-0.1,0-0.1,0C41,1.8,40.9,1.8,40.9,1.8z M41.5-0.2c0,0-0.1,0-0.1,0c0,0,0,0,0,0
													c-0.1-0.1-0.1-0.2-0.1-0.2c0,0,0-0.1,0.1-0.2c0.1,0,0.2-0.1,0.3,0l0.2,0c0.3,0,0.7,0,1,0.1c0.3,0.1,0.7,0.1,1,0.1
													c0.1,0,0.2,0,0.3,0.1c0,0,0,0,0.1,0c0.1,0,0.1,0,0.1,0.1c0,0,0,0,0,0c0.1,0.1,0.1,0.2,0,0.3c0,0,0,0,0,0
													c-0.1,0-0.2,0.1-0.2,0c-0.1,0-0.2,0-0.3-0.1c-0.1,0-0.2,0-0.3-0.1c-0.1,0-0.2,0-0.3,0c-0.1,0-0.2,0-0.3,0
													c-0.1,0-0.2,0-0.3,0c-0.1,0-0.2,0-0.3,0l-0.7,0C41.6-0.2,41.5-0.2,41.5-0.2z"/>
											</g>
											<g>
												<path class="st18" d="M46.3,3C46.3,3,46.3,3,46.3,3c-0.2-0.1-0.2-0.2-0.2-0.4l0-0.4c0-0.3,0-0.7,0.1-1
													c0-0.2,0-0.3,0-0.5c0-0.1,0-0.1,0-0.2c0,0,0,0,0,0c0,0,0,0,0,0c-0.1,0-0.2,0-0.2,0c-0.1,0-0.2,0-0.3,0c0,0,0,0-0.1,0
													c-0.1,0-0.1-0.1-0.2-0.1c0,0,0-0.1,0-0.1c0-0.2,0.2-0.3,0.4-0.2c0.1,0,0.1,0,0.2,0c0.1,0,0.1,0,0.2,0c0,0,0,0,0,0
													c0,0,0,0,0,0c0-0.2,0-0.3,0-0.5c0-0.1,0-0.3,0-0.4c0-0.1,0-0.2,0.1-0.3c0,0,0,0,0.1,0c0.1,0,0.2,0,0.2,0
													c0.1,0,0.2,0,0.3,0.1c0,0,0.1,0,0.1,0.1c0,0.1,0,0.2,0,0.2L47-0.2c0,0.1,0,0.1,0,0.2c0,0,0.1,0,0.1,0l0.5,0
													c0.2,0,0.3,0,0.5,0c0.2,0,0.3,0,0.5,0c0.2,0,0.3,0,0.5,0c0.1,0,0.3,0,0.4,0.2c0,0,0,0.1,0,0.1c0,0.1,0,0.2-0.1,0.3
													c0,0-0.1,0.1-0.1,0.1c-0.2,0.3-0.3,0.6-0.5,0.8c-0.1,0.1-0.2,0.2-0.3,0.4c-0.1,0.1-0.2,0.3-0.4,0.3c0,0-0.1,0-0.1,0
													c0,0-0.1,0-0.1,0c0,0-0.1,0-0.2-0.1c0,0,0,0,0,0c-0.1-0.1-0.1-0.2,0.1-0.3c0,0,0.1-0.1,0.1-0.1C48,1.3,48.2,1,48.4,0.7
													c0.1-0.1,0.1-0.2,0.2-0.3c-0.1,0-0.1,0-0.2,0c-0.2,0-0.3,0-0.5,0c-0.2,0-0.3,0-0.5,0c-0.1,0-0.2,0-0.3,0
													c0,0-0.1,0-0.1,0c0,0,0,0.1,0,0.1c0,0.2,0,0.3,0,0.5c0,0.3,0,0.7,0,1c0,0.1,0,0.2,0,0.3c0,0.1,0,0.2,0,0.3
													c0,0.1,0,0.2,0,0.2c0,0-0.1,0.1-0.2,0.1C46.6,3,46.5,3,46.3,3C46.4,3,46.3,3,46.3,3z M46.5,0.5c0,0.1,0,0.2,0,0.2
													c0,0.2,0,0.3,0,0.5c0,0.3,0,0.7-0.1,1l0,0.4c0,0,0,0,0,0c0.1,0,0.1,0,0.2,0c0-0.1,0-0.2,0-0.3c0-0.1,0-0.2,0-0.3
													c0-0.3,0-0.7,0-1c0-0.2,0-0.3,0-0.5c0-0.1,0-0.1,0-0.2c0-0.1,0-0.1,0-0.2c0,0,0,0,0,0c0,0,0-0.1,0-0.1
													c0-0.1,0-0.2,0-0.3l0.1-0.7c0,0,0,0,0,0c0,0,0,0,0,0c0,0,0,0,0,0c0,0-0.1,0-0.1,0c0,0.2,0,0.3,0,0.4c0,0.2,0,0.3,0,0.4
													c0,0.1,0,0.2-0.1,0.3c0,0,0,0,0,0C46.5,0.3,46.6,0.4,46.5,0.5z M49,0.2c0,0,0,0.1,0,0.1c-0.1,0.2-0.2,0.4-0.3,0.6
													c-0.2,0.3-0.3,0.5-0.5,0.8c0,0,0,0.1-0.1,0.1c0,0,0,0,0,0c0,0,0.1,0,0.1,0c0,0,0.1,0,0.1-0.1c0.1-0.2,0.2-0.3,0.3-0.4
													c0.2-0.3,0.4-0.5,0.5-0.8c0-0.1,0.1-0.1,0.2-0.2c0,0,0,0,0,0c0,0-0.1,0-0.1,0C49.1,0.2,49,0.2,49,0.2z"/>
											</g>
											<g>
												<path class="st18" d="M51.7,3.4c-0.1,0-0.1-0.1-0.2-0.2c0,0,0,0,0-0.1c0-0.1,0.1-0.2,0.1-0.3c0-0.1,0.1-0.1,0.1-0.2
													c0.1-0.1,0.2-0.2,0.3-0.4C52,2.3,52.1,2.1,52.1,2c0-0.3,0.1-0.7,0.1-1c0-0.3,0.1-0.7,0.2-1c0-0.1,0-0.1,0-0.2
													c0-0.1,0-0.2,0.1-0.3c0,0,0,0,0.1-0.1c0.1,0,0.3,0,0.4,0c0,0,0,0,0.1,0c0,0,0.1,0,0.1,0c0,0,0.1,0,0.1,0.1c0,0,0,0,0,0
													c0,0.1,0,0.2,0,0.3c0,0.1-0.1,0.3-0.1,0.4C53.1,0.7,53,1,53,1.3c0,0.2,0,0.3-0.1,0.5c0,0.2,0,0.3-0.1,0.5
													c-0.1,0.2-0.2,0.5-0.4,0.7c-0.1,0.1-0.1,0.2-0.2,0.2c0,0,0,0.1-0.1,0.1c0,0,0,0,0,0c-0.1,0-0.2,0.1-0.2,0.1c0,0,0,0,0,0
													c0,0,0,0,0,0l0,0c-0.1,0-0.1,0-0.2,0C51.7,3.4,51.7,3.4,51.7,3.4z M52.8-0.2C52.8-0.2,52.8-0.2,52.8-0.2
													C52.8-0.2,52.8-0.2,52.8-0.2c0,0.1,0,0.2,0,0.3c-0.1,0.3-0.1,0.6-0.2,1c0,0.3-0.1,0.7-0.1,1c0,0.2-0.1,0.3-0.2,0.5
													c-0.1,0.1-0.2,0.3-0.3,0.4C52,3,51.9,3,51.9,3.1c0,0,0.1,0,0.1,0c0,0,0,0,0,0c0,0,0,0,0,0c0.1-0.1,0.1-0.2,0.2-0.3
													c0.1-0.2,0.2-0.3,0.3-0.5c0-0.1,0-0.3,0.1-0.4c0-0.2,0-0.3,0.1-0.5c0-0.3,0.1-0.7,0.2-1c0-0.1,0.1-0.3,0.1-0.4
													C52.9-0.1,52.9-0.1,52.8-0.2C52.8-0.2,52.8-0.2,52.8-0.2z M50.3,1.8C50.3,1.8,50.2,1.8,50.3,1.8
													C50.2,1.8,50.2,1.8,50.3,1.8c-0.2-0.1-0.2-0.2-0.2-0.3c0-0.1,0-0.3,0-0.5c0-0.3,0.1-0.7,0.2-1c0-0.1,0-0.1,0-0.2
													c0-0.1,0-0.1,0-0.2c0-0.1,0-0.2,0.1-0.3c0.1,0,0.1,0,0.1-0.1c0,0,0,0,0.1,0c0,0,0.1,0,0.1,0c0.1,0,0.2,0,0.2,0
													c0,0,0.1,0,0.1,0c0.1,0.1,0.1,0.2,0.1,0.3c0,0.2,0,0.3-0.1,0.5c-0.1,0.3-0.1,0.6-0.2,1c0,0.1,0,0.1,0,0.2
													c0,0.1,0,0.2,0,0.2c0,0.1,0,0.2-0.1,0.3c0,0,0,0-0.1,0c-0.1,0-0.2,0-0.3,0C50.4,1.9,50.3,1.9,50.3,1.8z M50.7-0.4
													c0,0.1,0,0.2,0,0.2c0,0.1,0,0.1,0,0.2c-0.1,0.3-0.1,0.6-0.2,1c0,0.2,0,0.3,0,0.5c0,0,0,0,0.1,0c0,0,0.1,0,0.1,0
													c0,0,0,0,0,0c0-0.1,0-0.2,0-0.2c0-0.1,0-0.1,0-0.2c0-0.3,0.1-0.7,0.2-1c0-0.1,0.1-0.3,0.1-0.4c0,0,0,0,0,0
													C50.8-0.4,50.8-0.4,50.7-0.4C50.7-0.4,50.7-0.4,50.7-0.4z"/>
											</g>
										</g>
									</g>
									<g class="st4">
										<g>
											<path class="st18" d="M41.7-0.4c-0.1,0-0.1,0-0.2-0.1c0,0,0-0.1,0-0.1c0.1,0,0.1,0,0.2,0c0.1,0,0.2,0,0.2,0
												c0.3,0,0.7,0,1,0.1c0.3,0.1,0.6,0.1,1,0.1c0.1,0,0.2,0,0.2,0c0.1,0,0.1,0,0.2,0.1c0,0,0,0.1,0,0.1c0,0-0.1,0-0.1,0
												c-0.1,0-0.2,0-0.3-0.1c-0.1,0-0.2,0-0.3-0.1c-0.1,0-0.2,0-0.3,0c-0.1,0-0.2,0-0.3,0c-0.1,0-0.2,0-0.3,0
												c-0.1,0-0.2,0-0.3,0C42.1-0.3,41.9-0.3,41.7-0.4z M41.2,1.7C41.2,1.7,41.2,1.7,41.2,1.7c-0.1,0-0.2,0-0.2,0
												c-0.1,0-0.1,0-0.2-0.1c0-0.1,0-0.1,0.1-0.1c0.1,0,0.1,0,0.2,0c0.2,0,0.3,0,0.5,0c0.2,0,0.3,0,0.5,0.1c0.1,0,0.2,0,0.2,0
												c0.1,0,0.2,0,0.3,0c0.2,0,0.3,0,0.5,0.1c0.3,0,0.7,0.1,1,0.1c0.1,0,0.1,0,0.2,0c0.1,0,0.1,0,0.2,0c0,0,0,0.1,0,0.1
												c-0.1,0-0.1,0-0.2,0c-0.2,0-0.3-0.1-0.5-0.1c-0.2,0-0.3,0-0.5-0.1c-0.3,0-0.7-0.1-1-0.1C42,1.7,41.6,1.7,41.2,1.7
												C41.3,1.7,41.3,1.7,41.2,1.7z"/>
										</g>
										<g>
											<path class="st18" d="M46.4,2.9c-0.1,0-0.1-0.1-0.1-0.2c0-0.1,0-0.3,0-0.4c0-0.3,0-0.7,0.1-1c0-0.2,0-0.3,0-0.5
												c0-0.1,0-0.2,0-0.2c0-0.1,0-0.1,0-0.2c-0.1,0-0.1,0-0.2,0c-0.1,0-0.2,0-0.2,0c-0.1,0-0.2,0-0.2,0c-0.1,0-0.1,0-0.2-0.1
												c0-0.1,0.1-0.1,0.2-0.1c0.1,0,0.1,0,0.2,0c0.1,0,0.2,0,0.2,0c0.1,0,0.1,0,0.2,0c0,0,0-0.1,0-0.1c0-0.2,0-0.3,0-0.5
												c0-0.1,0-0.3,0-0.5c0-0.1,0-0.1,0.1-0.1c0.1,0,0.2,0,0.2,0c0.1,0,0.1,0,0.2,0c0,0,0,0.1,0,0.2c0,0.2,0,0.3,0,0.5l0,0.2
												c0,0.1,0,0.2,0,0.3c0,0.1,0,0.1,0.1,0.1c0.1,0,0.2,0,0.2,0c0.2,0,0.3,0,0.5,0c0.2,0,0.3,0,0.5,0c0.2,0,0.3,0,0.5,0
												c0.2,0,0.3,0,0.5,0c0.1,0,0.2,0,0.3,0.1c0,0.1,0,0.1-0.1,0.2c-0.1,0.1-0.1,0.1-0.1,0.2c-0.2,0.3-0.3,0.6-0.5,0.8
												c-0.1,0.1-0.2,0.3-0.3,0.4c-0.1,0.1-0.1,0.2-0.3,0.2c0,0-0.1,0-0.1,0c0,0-0.1,0-0.1,0c-0.1,0-0.1,0-0.1-0.1
												c0,0,0-0.1,0-0.1c0,0,0.1-0.1,0.1-0.2c0.2-0.3,0.3-0.5,0.5-0.8c0.1-0.2,0.2-0.4,0.3-0.5c-0.1,0-0.1,0-0.2,0
												c-0.1,0-0.2,0-0.2,0c-0.2,0-0.3,0-0.5,0c-0.2,0-0.3,0-0.5,0c-0.1,0-0.2,0-0.2,0c-0.1,0-0.1,0-0.2,0c-0.1,0-0.1,0-0.1,0.1
												c0,0.1,0,0.1,0,0.2c0,0.2,0,0.3,0,0.5c0,0.3,0,0.7,0,1c0,0.1,0,0.2,0,0.3c0,0.1,0,0.2,0,0.3c0,0.1,0,0.1-0.1,0.1
												C46.6,2.8,46.5,2.8,46.4,2.9z"/>
										</g>
										<g>
											<path class="st18" d="M50.5,1.7c-0.1,0-0.1,0-0.2,0c0,0,0-0.1,0-0.1c0-0.2,0-0.3,0-0.5c0-0.3,0.1-0.6,0.2-1
												c0-0.1,0-0.2,0-0.2c0-0.1,0-0.2,0-0.2c0-0.1,0-0.1,0-0.1c0,0,0.1,0,0.1,0c0,0,0.1,0,0.1,0c0.1,0,0.1,0,0.2,0
												c0,0,0.1,0.1,0,0.1C51-0.2,51,0,50.9,0.1c-0.1,0.3-0.1,0.7-0.2,1c0,0.1,0,0.2,0,0.2c0,0.1,0,0.2,0,0.2c0,0.1,0,0.1,0,0.2
												C50.6,1.7,50.5,1.7,50.5,1.7z M52,3.3c-0.1,0-0.1,0-0.2,0c-0.1,0-0.1,0-0.1-0.1c0-0.1,0-0.1,0.1-0.2
												c0-0.1,0.1-0.1,0.1-0.2C52,2.7,52,2.6,52.1,2.5c0.1-0.1,0.1-0.3,0.1-0.4c0-0.3,0.1-0.7,0.1-1c0-0.3,0.1-0.7,0.2-1
												c0-0.1,0-0.1,0-0.2c0-0.1,0-0.1,0-0.2c0.1,0,0.2,0,0.3,0c0,0,0.1,0,0.1,0c0,0,0.1,0,0.1,0c0,0,0,0.1,0,0.1
												C53,0,53,0.2,53,0.3c-0.1,0.3-0.1,0.6-0.2,1c0,0.2,0,0.3-0.1,0.5c0,0.2,0,0.3-0.1,0.5c-0.1,0.2-0.2,0.4-0.3,0.6
												c-0.1,0.1-0.1,0.2-0.2,0.3c0,0,0,0.1-0.1,0.1C52.1,3.3,52,3.3,52,3.3z"/>
										</g>
									</g>
								</g>
								<g class="st3">
									<g class="st4">
										<path class="st18" d="M58.7,2.3c-1.7,0.1-2.1,0.4-2.8,1.9c-0.1-1.7-0.4-2.1-1.9-2.8C55.6,1.3,56,1,56.7-0.5
											C56.9,1.2,57.2,1.6,58.7,2.3z"/>
									</g>
								</g>
								<g>
									<g>
										<path class="st18" d="M67.4,27.7c0,0-1.2-2.7-1.4-2.6c-0.3,0.1-0.3,2.1-0.8,2.2L67.4,27.7z"/>
									</g>
								</g>
								<g>
									<g>
										<path class="st18" d="M53.4,33.3c2.2,1.2,6.3,4.8,7.4,6.9c0,0,2.9-2.3,6-2.5c3.2-0.2,4.7-0.8,4.7-0.8l-4.9-8.5l-4.4,0.8
											l-8.8,0.7L53.4,33.3z"/>
									</g>
								</g>
								<g>
									<g>
										<g>
											<path class="st18" d="M49.2,25c-1.1,0.3-3.2,1-4.1,0.4c0,0,0.1-0.9-0.9-1.3s-1.7,0.1-1.6,1.4c0.1,1.3,1.2,2,1.8,2.1
												c0.7,0.1,3.2-0.1,3.2-0.1"/>
										</g>
									</g>
									<g>
										<g>
											<path class="st18" d="M53.6,27.5c2.9,1.7,4.6,2,7.6,1.3c3-0.7,3.7-1.4,4.1-1.9c0.4-0.5,1.8,0.1,2.4,1.3
												c0.6,1.2,4.4,9.1,4.4,9.1s0.1,0.9-0.5,0.1c-0.6-0.8-4.2-7.1-4.7-7.3c-0.5-0.2,0.6,0.2-1.5,4.4c-2.2,4.3-4,6-4.6,6.3
												S60,41,61.2,39.4s2.2-3.1,3.2-5.3c1-2.2,1.5-5.1,0.9-5.2c-0.6-0.1-3.7,1.9-6.3,2.4c-2.6,0.4-4.4,0.8-5.3,0.1L53.6,27.5z"
												/>
										</g>
									</g>
									<g>
										<g>
											<path class="st18" d="M56.5,28.6c0.8,1.7,0.8,2.7,2,3.7c0,0,0.9,0,1.2,0.4c0.4,0.4,0.4,1.4-0.4,2c-0.8,0.5-1.8,0-2.1-0.7
												c0,0-1.2-0.9-1.6-1.8c-0.4-0.9-0.8-1.8-0.8-1.8"/>
										</g>
									</g>
									<g>
										<g>
											<path class="st18" d="M44.6,34.2c0.5,0.3,1.2,0.8,0.4,1.6c-0.7,0.8-1,0.8-1.6,0.4c-0.6-0.4-1.9-1.6-2.9-0.7
												c-0.9,0.9,0.2,2.4,1.5,2.9c1.2,0.6,2.9,0.7,3.6,0.4c0.7-0.3,0.8-1,1.1-2.3c0.3-1.3,0.3-1.9,1.7-1.9"/>
										</g>
									</g>
									<g>
										<g>
											<path class="st18" d="M52.5,36.7c-0.6,0-1.4,0-1.3,1.1c0.1,1.1,0.3,1.2,1.1,1.3c0.8,0,2.5-0.2,2.7,1.1
												c0.2,1.3-1.6,1.8-2.9,1.5c-1.3-0.2-2.7-1.1-3.1-1.8c-0.4-0.6,0-1.3,0.4-2.5s0.8-1.7-0.2-2.5"/>
										</g>
									</g>
									<g>
										<g>
											<path class="st18" d="M48.9,24.2c0,0-1.8,2-3.5,3.7c-1.7,1.7-3.4,5.6-2.3,7.9s3.5,2.8,7.5,3.7s3.3-0.4,3.4-2.7
												c0.2-2.3,1.3-4.3,1.9-5.9c0.6-1.5,1.7-4.2,1.7-4.2L48.9,24.2z"/>
										</g>
									</g>
								</g>
								<g>
									<g>
										<g>
											<g>
												<path class="st18" d="M54.9,16.2c5.4,1.2,6.6-1.1,7-2.6c0.4-1.5-0.8-4-1.5-4.6c0,0,1.2-1.1,3-0.2
													c1.8,0.9,2.5,2.4,2.4,3.8c-0.1,1.4-0.9,3.6-2.5,4.4c-1.7,0.8-4.7,1.6-8.6,0.7"/>
											</g>
										</g>
										<g>
											<g>
												<path class="st18" d="M53.8,15.9c-5.4-1.2-5.5-3.9-5.2-5.4C48.9,9,51.1,7.3,52,7c0,0-0.6-1.5-2.6-1.4
													c-2,0-3.3,1.1-3.8,2.4c-0.5,1.3-0.8,3.6,0.4,5.1s3.6,3.5,7.5,4.4"/>
											</g>
										</g>
									</g>
									<g>
										<g>
											<path class="st18" d="M64.6,21.7c1.1-4.9,0.6-9.2-8.9-11.4s-11.8,1.5-13,6.4s-0.6,9.2,8.9,11.4S63.4,26.6,64.6,21.7z"/>
										</g>
									</g>
									<g>
										<g>
											<path class="st18" d="M62.1,21.1c0.9-3.8,0.4-7.2-6.9-8.8s-9.2,1.2-10,5s-0.4,7.2,6.9,8.8S61.2,24.9,62.1,21.1z"/>
										</g>
									</g>
									<g>
										<g>
											<g>
												
													<ellipse transform="matrix(0.221 -0.9753 0.9753 0.221 17.1278 61.9471)" class="st18" cx="47.3" cy="20.3" rx="1.4" ry="1.4"/>
											</g>
										</g>
										<g>
											<g>
												
													<ellipse transform="matrix(0.221 -0.9753 0.9753 0.221 23.5352 75.1744)" class="st18" cx="58.8" cy="22.9" rx="1.4" ry="1.4"/>
											</g>
										</g>
									</g>
									<g>
										<g>
											<g>
												<path class="st18" d="M59.4,18.8c0.1,0.3,0.1,0.7,0,1.1c-0.2,0.8-0.5,1.3-1.5,1.1c-0.9-0.2-1-0.9-0.8-1.6
													c0-0.2,0.1-0.3,0.1-0.5L59.4,18.8z"/>
											</g>
										</g>
										<g>
											<g>
												<path class="st18" d="M48.5,16.3c-0.2,0.2-0.4,0.5-0.5,0.9c-0.2,0.8-0.1,1.4,0.8,1.6c0.9,0.2,1.3-0.4,1.5-1.1
													c0-0.2,0.1-0.3,0.1-0.5L48.5,16.3z"/>
											</g>
										</g>
									</g>
									<path class="st18" d="M56.7,23.6c0.2-0.3-0.1-1.6-0.4-1.8c-0.2-0.2-0.9,0.5-1.2,0.9c-0.3-0.1-0.7-0.2-1-0.3
										c-0.4-0.1-0.8-0.1-1.1-0.2c-0.4-0.1-0.7-0.1-1.1-0.2c-1.9-0.2-3.1-0.1-2.9,0.4c0.3,0.6,0.8,0.7,2.1,0.7
										c0.6,0,1.2,0,1.8,0.1c0.6,0.1,1.2,0.2,1.7,0.4c1.2,0.4,1.8,0.4,2.2,0C56.6,23.7,56.7,23.6,56.7,23.6L56.7,23.6z"/>
								</g>
								<g>
									<g>
										<g>
											
												<rect x="38.4" y="16.3" transform="matrix(-0.9501 0.312 -0.312 -0.9501 83.694 26.4418)" class="st18" width="2.6" height="7.3"/>
										</g>
									</g>
									<g>
										<g>
											
												<rect x="37.1" y="18" transform="matrix(-0.312 -0.9501 0.9501 -0.312 30.0398 63.3863)" class="st18" width="1.8" height="5.7"/>
										</g>
									</g>
									<g>
										<g>
											
												<rect x="35.3" y="14.9" transform="matrix(-0.312 -0.9501 0.9501 -0.312 30.4638 58.8125)" class="st18" width="2.4" height="6.9"/>
										</g>
									</g>
									<g>
										<g>
											<path class="st18" d="M36.6,29.7c0.8,2.6,2.3,4.4,7.3,2.8c5-1.6,5-4,4.2-6.5c-0.8-2.6-2.3-4.4-7.3-2.8
												S35.8,27.1,36.6,29.7z M38.9,28.9c-0.5-1.5-0.5-2.9,2.5-3.9c2.9-1,3.8,0.1,4.3,1.7c0.5,1.5,0.5,2.9-2.5,3.9
												C40.3,31.6,39.4,30.5,38.9,28.9z"/>
										</g>
									</g>
								</g>
								<g>
									<g>
										<path class="st18" d="M45.1,25.3c0,0,0.1-0.9-0.9-1.3s-1.7,0.1-1.6,1.4c0.1,1.3,1.2,2,1.8,2.1"/>
									</g>
								</g>
							</g>
							
								<use xlink:href="#新規シンボル"  width="133.5" height="128.8" x="-66.7" y="-64.4" transform="matrix(0.3079 9.834382e-02 9.834382e-02 -0.3079 54.7556 20.7217)" style="overflow:visible;"/>
						</g>
					</g>
				</g>
			</g>
		</g>
		<g>
			<g>
				
					<ellipse transform="matrix(0.9517 -0.3071 0.3071 0.9517 6.2423 77.4214)" class="st2" cx="249.1" cy="18.9" rx="17.4" ry="17.4"/>
				<g>
					<defs>
						
							<ellipse id="SVGID_13_" transform="matrix(0.9517 -0.3071 0.3071 0.9517 6.2423 77.4214)" cx="249.1" cy="18.9" rx="17.4" ry="17.4"/>
					</defs>
					<clipPath id="SVGID_5_">
						<use xlink:href="#SVGID_13_"  style="overflow:visible;"/>
					</clipPath>
					<g class="st19">
						<g>
							<path class="st20" d="M253.9,23.8c1.5,0.8,8.6,5,8.5,7c-0.1,1.6-1.7,1.4-2.2,1.1c-0.5-0.3-0.2-0.9-0.5-1.2
								c-0.7-0.7-2.1-1.4-3.5-1.6L253.9,23.8z"/>
							<g>
								<path class="st20" d="M249.7,42.8L249.7,42.8c-0.7,0.1-1.4-0.4-1.5-1.1l-0.6-4c-0.1-0.7,0.4-1.4,1.1-1.5l0,0
									c0.7-0.1,1.4,0.4,1.5,1.1l0.6,4C251,42,250.4,42.7,249.7,42.8z"/>
								<path class="st20" d="M250.7,42.7l-1.9,0.3c-0.6,0.1-1.2-0.4-1.3-1v0c-0.1-0.6,0.4-1.2,1-1.3l1.9-0.3c0.6-0.1,1.2,0.4,1.3,1
									l0,0C251.8,42,251.3,42.6,250.7,42.7z"/>
							</g>
							<g>
								<path class="st20" d="M255.2,42L255.2,42c0.7-0.1,1.2-0.8,1.1-1.5l-0.6-4c-0.1-0.7-0.8-1.2-1.5-1.1l0,0
									c-0.7,0.1-1.2,0.8-1.1,1.5l0.6,4C253.8,41.6,254.4,42.1,255.2,42z"/>
								<path class="st20" d="M254.2,42.2l1.9-0.3c0.6-0.1,1.1-0.7,1-1.3v0c-0.1-0.6-0.7-1.1-1.3-1l-1.9,0.3c-0.6,0.1-1.1,0.7-1,1.3
									v0C253,41.8,253.6,42.3,254.2,42.2z"/>
							</g>
							<g>
								<g>
									<path class="st20" d="M246.8,31.8c-1.6-0.4-9.5-2.7-9.9-4.6c-0.3-1.6,1.3-1.8,1.8-1.6s0.4,0.8,0.8,1c0.8,0.5,3.5,1,4.8,0.9
										L246.8,31.8z"/>
								</g>
							</g>
							<path class="st20" d="M269.3,23.5c-1.1-1.3-3-1.2-4.1-0.2c-0.6-0.9-1.3-1.7-2.5-1.6c-2.2,0.2-3.3,2.3-2.7,4.3
								c0.4,1.4,2.3,2.2,3.2,3.4c0.5,0.7,0.5,1.7-0.2,2.4c-1,1-3.3,1.6-4.7,1.7c-1.6,0.1-1.3,2,0.3,1.9c2.4-0.1,5.4-0.5,6.4-3.1
								c0.6-1.4,0.2-2.6-0.6-3.7c-0.6-0.8-2.6-2.6-2.4-3.7c0.1-1.4,1.9-1.4,2.2-0.2c0.3,0.9,0.6,1.7,1.2,0.9
								c2.2-2.7,4.6,1.8,1.1,1.8c-1.6,0-0.8,2.5,0.6,1.9C269.3,28.2,270.9,25.6,269.3,23.5z"/>
							<g>
								<g>
									<path class="st20" d="M251.6,37.1c-4.6,0.6-9,2.7-9.1,1.2C242.3,36.4,245,24,245,24l4.7-0.7l4.7-0.7c0,0,6,11.1,6.3,12.9
										C261,37.1,256.3,36.4,251.6,37.1z"/>
								</g>
								<g>
									
										<ellipse transform="matrix(0.9899 -0.142 0.142 0.9899 -2.9194 35.1336)" class="st20" cx="244.7" cy="38" rx="1.7" ry="1.7"/>
									
										<ellipse transform="matrix(0.9899 -0.142 0.142 0.9899 -2.8839 35.5358)" class="st20" cx="247.5" cy="38" rx="1.7" ry="1.7"/>
									
										<ellipse transform="matrix(0.9899 -0.142 0.142 0.9899 -2.8484 35.938)" class="st20" cx="250.4" cy="37.9" rx="1.7" ry="1.7"/>
									
										<ellipse transform="matrix(0.9899 -0.142 0.142 0.9899 -2.7634 36.3295)" class="st20" cx="253.2" cy="37.5" rx="1.7" ry="1.7"/>
									
										<ellipse transform="matrix(0.9899 -0.142 0.142 0.9899 -2.629 36.7102)" class="st20" cx="255.9" cy="36.8" rx="1.7" ry="1.7"/>
									
										<ellipse transform="matrix(0.9899 -0.142 0.142 0.9899 -2.4946 37.091)" class="st20" cx="258.6" cy="36" rx="1.7" ry="1.7"/>
								</g>
							</g>
							<g>
								<g>
									<path class="st20" d="M251.3,9.6c0.5-0.5,2.8-2.6,4.1-3.2s1.7-0.4,2.1,1s1.1,3.1,0.7,5L251.3,9.6z"/>
									<path class="st20" d="M244.3,10.6c-0.6-0.4-3.4-1.7-4.8-1.9c-1.5-0.2-1.8,0.1-1.8,1.6s-0.1,3.3,0.7,5L244.3,10.6z"/>
								</g>
								<g>
									<g>
										<g>
											<path class="st20" d="M237.6,20.5c0.7,5.2,4.2,8.9,12.8,7.7c8.6-1.2,10.9-5.8,10.1-11s-4.2-8.9-12.8-7.7
												S236.9,15.3,237.6,20.5z"/>
										</g>
									</g>
								</g>
							</g>
							<g>
								<g>
									<path class="st20" d="M240.1,20.2c0.6,4,3.3,7,10,6s8.5-4.6,7.9-8.6s-3.3-7-10-6C241.3,12.5,239.5,16.1,240.1,20.2z"/>
								</g>
							</g>
							<g>
								<g>
									<g>
										<path class="st20" d="M250.3,31.7c0,0,0-3,0.2-3c0.2,0,1,2.9,1,2.9L250.3,31.7z"/>
									</g>
								</g>
								<g>
									<g>
										<path class="st20" d="M251,32.2c0,0-6.8,0.6-6.8,0.4c0-0.3,6.6-1.6,6.6-1.6L251,32.2z"/>
									</g>
								</g>
								<g>
									<g>
										<path class="st20" d="M251,32.2c0,0,6.7-1.3,6.6-1.6c0-0.3-6.8,0.4-6.8,0.4L251,32.2z"/>
									</g>
								</g>
								<g>
									<g>
										<path class="st20" d="M250.3,31.7c0,0,1.2,6.2,1.5,6.1c0.3,0-0.3-6.3-0.3-6.3L250.3,31.7z"/>
									</g>
								</g>
							</g>
							<g>
								<g>
									<path class="st20" d="M254.8,17.3c0.1,0.6-0.2,1.2-1,1.3c-0.8,0.1-1.3-0.3-1.4-1c-0.1-0.6,0.2-1.2,1-1.3
										C254.2,16.2,254.7,16.7,254.8,17.3z"/>
								</g>
								<g>
									<path class="st20" d="M252.4,17.2c-0.5-0.1-0.8-0.6-0.9-0.9c0-0.2,0.1-0.4,0.3-0.5c0.2-0.1,0.6,0,0.5,0.3
										c0,0.2,0,0.3,0.1,0.4c0.2,0.1,0.4,0,0.7-0.1c0.2-0.1,0.6,0,0.7,0.2c0.1,0.2-0.1,0.3-0.2,0.4
										C253.5,17.1,252.9,17.3,252.4,17.2z"/>
								</g>
							</g>
							<g>
								<g>
									<g>
										<g>
											<path class="st20" d="M254.4,11c1-1.6,3.1-2.3,5.1-1.1c0.4,0.4-0.4,1.9-0.6,2.4c-0.3,0.8-0.2,1.3-0.4,2
												c-0.2,0.7-3.1,0.2-4.2-2.7C254.2,11.3,254.4,11,254.4,11z"/>
										</g>
									</g>
									<g>
										<g>
											<path class="st20" d="M254.6,11.1c-0.1-1.9-1.8-3.4-4.1-3.2C250,8,250,9.7,250,10.3c-0.1,0.9-0.4,1.3-0.5,2
												c-0.1,0.7,2.7,1.5,4.9-0.6C254.6,11.4,254.6,11.1,254.6,11.1z"/>
										</g>
									</g>
								</g>
								
									<ellipse transform="matrix(0.2248 -0.9744 0.9744 0.2248 186.3548 256.6078)" class="st20" cx="254.4" cy="11.2" rx="1" ry="1"/>
							</g>
							<g>
								<g>
									<path class="st20" d="M245.5,18.7c0.1,0.6-0.2,1.2-1,1.3s-1.3-0.3-1.4-1c-0.1-0.6,0.2-1.2,1-1.3
										C244.9,17.6,245.4,18,245.5,18.7z"/>
								</g>
								<g>
									<path class="st20" d="M243.1,18.6c-0.5-0.1-0.8-0.6-0.9-0.9c0-0.2,0.1-0.4,0.3-0.5c0.2-0.1,0.6,0,0.5,0.3
										c0,0.2,0,0.3,0.1,0.4c0.2,0.1,0.4,0,0.7-0.1c0.2-0.1,0.6,0,0.7,0.2c0.1,0.2-0.1,0.3-0.2,0.4
										C244.2,18.5,243.5,18.6,243.1,18.6z"/>
								</g>
							</g>
							<g>
								<g>
									<g>
										
											<ellipse transform="matrix(0.9899 -0.142 0.142 0.9899 -0.7339 34.8448)" class="st20" cx="243.8" cy="22.6" rx="1.6" ry="1.6"/>
									</g>
								</g>
								<g>
									<g>
										
											<ellipse transform="matrix(0.9899 -0.142 0.142 0.9899 -0.386 36.4478)" class="st20" cx="255.2" cy="20.9" rx="1.6" ry="1.6"/>
									</g>
								</g>
							</g>
							<path class="st20" d="M249.6,22.4c0.5-0.1,1.3,0.2,1.5,0.3c1.1,0.4,2-0.1,2.4-0.8c0.4-0.8-0.4-1.8-1-1.4
								c-0.7,0.5-0.1,0.8-0.3,1.1c-0.2,0.3-0.8,0.1-1.3-0.1c-0.5-0.3-1-0.3-1.5-0.2v0v0c-0.6,0.1-1,0.2-1.4,0.6
								c-0.4,0.4-1,0.7-1.2,0.5c-0.3-0.2,0.2-0.8-0.6-1c-0.7-0.2-1.2,1-0.5,1.6c0.6,0.6,1.6,0.9,2.6,0.1
								C248.4,22.9,249.1,22.4,249.6,22.4z"/>
						</g>
						
							<use xlink:href="#パーにゃん"  width="93.1" height="99.8" x="-46.5" y="-49.9" transform="matrix(0.3517 -5.045289e-02 -5.045289e-02 -0.3517 253.145 24.4435)" style="overflow:visible;"/>
					</g>
				</g>
			</g>
			<g>
				<g>
					<circle class="st2" cx="281.6" cy="16.9" r="17.3"/>
					<g>
						<defs>
							<circle id="SVGID_12_" cx="281.6" cy="16.9" r="17.3"/>
						</defs>
						<clipPath id="SVGID_6_">
							<use xlink:href="#SVGID_12_"  style="overflow:visible;"/>
						</clipPath>
						<g class="st21">
							<g>
								<g>
									<g>
										<g>
											<path class="st22" d="M273.1,36.1c0.6,0.3,1.3,0.8,0.6,1.7c-0.7,1-1,1-1.7,0.6c-0.7-0.4-2.3-1.6-3.2-0.5
												c-0.9,1.1,0.5,2.6,1.9,3.1c1.4,0.5,3.2,0.5,3.9,0.1c0.7-0.4,0.8-1.2,1-2.6c0.2-1.4,0.2-2.1,1.7-2.3"/>
										</g>
									</g>
									<g>
										<g>
											<path class="st22" d="M282,38.1c-0.7,0-1.5,0.1-1.3,1.3c0.2,1.2,0.4,1.3,1.3,1.3c0.8,0,2.8-0.5,3.1,0.9s-1.6,2.1-3,1.9
												c-1.5-0.2-3.1-1-3.6-1.7c-0.5-0.7-0.2-1.4,0.3-2.8c0.4-1.4,0.8-1.9-0.5-2.8"/>
										</g>
									</g>
									<g>
										<g>
											<path class="st22" d="M273.7,27.4c-1-0.6-3.2-1.4-3.4-2.6c0,0,0.7-0.7,0.2-1.6c-0.5-0.9-1.4-1.1-2.2-0.1
												c-0.8,1-0.5,2.4,0,2.9c0.5,0.5,2.5,2.1,2.5,2.1"/>
										</g>
									</g>
									<g>
										<g>
											<path class="st22" d="M286.3,29.1c0.8,0.9,2.1,2.8,3.3,2.8c0,0,0.5-0.8,1.5-0.6s1.4,1.1,0.6,2.2c-0.8,1-2.2,1-2.8,0.7
												s-2.6-2-2.6-2"/>
										</g>
									</g>
								</g>
								<g>
									<g>
										<path class="st22" d="M280.3,25.8c4.6,1.1,5.7,1.1,5.7,1.1c0.1,1,0.8,2.6,2.4,2.9c1.6,0.3,1.6,0.5,0.9,1.2
											c-0.7,0.6-1.4,5.7-4.3,7.4c-2.2,1.3-4.1,1.6-6,1.6c-0.6,0-1.4,0.1-2.1,0.4c-0.5-0.6-1.1-1-1.7-1.3c-1.7-0.9-3.3-2-4.7-4.1
											c-1.8-2.8-0.3-7.6-0.6-8.5c-0.3-0.9-0.2-1.1,1.3-0.6s2.9-0.6,3.4-1.5C274.6,24.3,275.7,24.7,280.3,25.8z"/>
									</g>
								</g>
								<g>
									<g>
										<g>
											<g>
												
													<rect x="283.9" y="0.9" transform="matrix(0.9742 0.2258 -0.2258 0.9742 8.5803 -64.2038)" class="st22" width="2.2" height="9"/>
											</g>
										</g>
										<g>
											<g>
												
													<rect x="286.2" y="2.8" transform="matrix(0.2258 -0.9742 0.9742 0.2258 216.2507 284.7433)" class="st22" width="2.2" height="7"/>
											</g>
										</g>
										<g>
											<g>
												
													<rect x="287.3" y="-1.1" transform="matrix(0.2258 -0.9742 0.9742 0.2258 220.4857 283.7657)" class="st22" width="3" height="8.5"/>
											</g>
										</g>
									</g>
									<g>
										<g>
											<path class="st22" d="M293.4,20.7c1.2-5.1,0.6-9.6-9.2-11.8c-9.8-2.3-12.2,1.5-13.4,6.6s-0.6,9.6,9.2,11.8
												S292.2,25.8,293.4,20.7z"/>
										</g>
									</g>
								</g>
								<g>
									<g>
										<path class="st22" d="M290.8,20.1c0.9-3.9,0.5-7.4-7.1-9.2s-9.5,1.2-10.4,5.1s-0.5,7.4,7.1,9.2
											C288,27,289.9,24.1,290.8,20.1z"/>
									</g>
								</g>
								<g>
									<g>
										<g>
											<path class="st22" d="M278.8,16.7c-0.2,0.8-0.6,1.4-1.5,1.1c-1-0.2-1-0.9-0.9-1.7c0.2-0.8,0.6-1.4,1.5-1.1
												S279,15.9,278.8,16.7z"/>
										</g>
									</g>
									<g>
										<g>
											<path class="st22" d="M288.1,18.8c-0.2,0.8-0.6,1.4-1.5,1.1s-1-0.9-0.9-1.7c0.2-0.8,0.6-1.4,1.5-1.1
												C288.2,17.4,288.2,18.1,288.1,18.8z"/>
										</g>
									</g>
									<g>
										<g>
											<path class="st22" d="M286.5,22.4c-0.1,0.7-1,1.5-1.8,1.6c-1.3,0.2-2.7-0.1-3.5-1.8c-1.3,1.1-2.7,1-4.1,0
												c-0.7-0.5-1-1.3-0.9-2.2c0.2,0.2,0.3,0.3,0.5,0.4c0.3,0.3,0.7,0.3,1.1,0.1c0.4-0.2,0.7-0.4,1.1-0.6
												c0.2-0.1,0.4-0.2,0.6-0.2c0.8-0.2,1.3,0,1.7,0.7c0.1,0.2,0.2,0.4,0.3,0.6c0.1-0.1,0.3-0.2,0.4-0.3
												c0.8-0.6,1.4-0.5,2.1,0.2c0.3,0.3,0.6,0.6,0.8,1c0.6,0.8,0.7,0.8,1.7,0.6C286.4,22.4,286.5,22.4,286.5,22.4z"/>
										</g>
									</g>
								</g>
								<g>
									<g>
										<g>
											<path class="st22" d="M278.4,31c0,0,1.1-3,1.4-2.9s-0.1,3.2-0.1,3.2L278.4,31z"/>
										</g>
									</g>
									<g>
										<g>
											<path class="st22" d="M278.9,31.8c0,0-7-2-6.9-2.3c0.1-0.3,7.2,1,7.2,1L278.9,31.8z"/>
										</g>
									</g>
									<g>
										<g>
											<path class="st22" d="M278.9,31.8c0,0,7.1,1.3,7.2,1c0.1-0.3-6.9-2.3-6.9-2.3L278.9,31.8z"/>
										</g>
									</g>
									<g>
										<g>
											<path class="st22" d="M278.4,31c0,0-1.4,7.3-1,7.4c0.3,0.1,2.3-7.1,2.3-7.1L278.4,31z"/>
										</g>
									</g>
								</g>
								<g>
									<g>
										<g>
											<path class="st22" d="M269.7,21.7c0,0,0.7-14,0.1-14c-0.6,0-1,14-1,14L269.7,21.7z"/>
										</g>
									</g>
									<g>
										<g>
											<path class="st22" d="M269.1,23.6L269.1,23.6c-0.6,0-1-0.5-1-1.1v0c0-0.6,0.5-1,1.1-1l0,0c0.6,0,1,0.5,1,1.1v0
												C270.2,23.2,269.7,23.6,269.1,23.6z"/>
										</g>
									</g>
								</g>
								<g>
									<g>
										<path class="st22" d="M269.5,23.7c0,0-0.8-0.6-0.3-1.1c0.5-0.5,1.1,0.3,1.1,0.3"/>
									</g>
								</g>
							</g>
							
								<use xlink:href="#パーマン"  width="77.7" height="120" x="-38.8" y="-60" transform="matrix(0.3444 7.981247e-02 7.981247e-02 -0.3444 280.5375 21.5163)" style="overflow:visible;"/>
						</g>
					</g>
				</g>
			</g>
		</g>
	</g>
</g>
</svg>
